<?xml version="1.0" encoding="utf-8"?>
<!-- Generator: Adobe Illustrator 19.2.0, SVG Export Plug-In . SVG Version: 6.00 Build 0)  -->
<svg version="1.1" id="Слой_1" xmlns="http://www.w3.org/2000/svg" xmlns:xlink="http://www.w3.org/1999/xlink" x="0px" y="0px"
	 viewBox="0 0 283.5 283.5" style="enable-background:new 0 0 283.5 283.5;" xml:space="preserve">
<style type="text/css">
	.st0{display:none;stroke:#FFFFFF;stroke-miterlimit:10;}
	.st1{fill:url(#SVGID_1_);}
</style>
<g>
	<rect x="1.3" y="1.3" class="st0" width="282.2" height="282.2"/>
	<linearGradient id="SVGID_1_" gradientUnits="userSpaceOnUse" x1="4.5556" y1="138.0943" x2="278.9044" y2="138.0943">
		<stop  offset="0" style="stop-color:#FFFFFF"/>
		<stop  offset="1" style="stop-color:#FFFFFF;stop-opacity:0"/>
	</linearGradient>
	<path class="st1" d="M4.6,132.3c1.4-2.3,2.7-4.6,4.1-6.9c0.7-1.2,1.4-2.3,2-3.5c0.3-0.6,0.7-0.8,1.3-0.8c3.6,0,7.2,0,10.8,0.1
		c0.7,0,1.1-0.2,1.5-0.9c1.8-3.1,3.6-6.2,5.4-9.4c0.4-0.7,0.8-0.9,1.6-0.9c3.4,0.1,6.9,0,10.3,0.1c0.7,0,1.1-0.2,1.5-0.8
		c1.8-3.1,3.6-6.2,5.4-9.3c0.3-0.6,0.3-0.9,0-1.4c-1.8-3.1-3.6-6.3-5.4-9.5c-0.3-0.5-0.6-0.7-1.3-0.7c-3.6,0-7.3,0-10.9,0
		c-0.8,0-1.1-0.3-1.5-0.9c-1.9-3.3-3.8-6.6-5.7-9.9c-0.3-0.5-0.3-0.8,0-1.3c2-3.3,3.9-6.6,5.8-10c0.3-0.6,0.7-0.7,1.4-0.7
		c3.6,0,7.2,0,10.8,0c0.8,0,1.1-0.3,1.5-0.9c1.8-3.2,3.7-6.3,5.5-9.4c0.3-0.6,0.7-0.9,1.4-0.8c3.8,0.1,7.6,0.1,11.4,0
		c0.7,0,1.1,0.2,1.4,0.8c1.7,3.1,3.5,6.1,5.2,9.2c0.4,0.8,0.9,1.1,1.8,1.1c3.5-0.1,7.1,0,10.6,0c0.7,0,1.1,0.2,1.4,0.8
		c1.7,3.1,3.5,6.2,5.3,9.3c0.4,0.6,0.7,0.9,1.5,0.9c3.4,0,6.8,0,10.2,0.1c0.8,0,1.1-0.3,1.5-0.9c1.8-3.2,3.7-6.3,5.5-9.4
		c0.3-0.6,0.7-0.8,1.4-0.8c3.5,0,7.1,0,10.6,0.1c0.7,0,1.1-0.2,1.4-0.8c1.8-3.2,3.7-6.4,5.6-9.6c0.3-0.6,0.7-0.8,1.3-0.8
		c3.6,0,7.3,0.1,10.9,0c0.4,0,1-0.2,1.1-0.5c2.1-3.5,4.1-7.1,6.2-10.6c4.4,0,8.9,0,13.3,0c2,3.5,4,7.1,6.1,10.6
		c0.2,0.3,0.7,0.5,1.1,0.5c3.7,0,7.4,0,11,0c0.7,0,1,0.2,1.3,0.8c1.9,3.3,3.8,6.6,5.7,9.9c0.4,0.6,0.3,1.1,0,1.6
		c-1.9,3.1-3.7,6.3-5.5,9.4c-0.3,0.5-0.4,0.9,0,1.4c1.8,3.1,3.6,6.3,5.4,9.5c0.3,0.6,0.6,0.8,1.3,0.8c3.7,0,7.4,0,11,0
		c0.6,0,0.9-0.2,1.3-0.7c1.8-3.1,3.6-6.2,5.4-9.3c0.3-0.6,0.7-0.9,1.4-0.8c3.8,0.1,7.6,0.1,11.5,0.1c0.6,0,1,0.2,1.3,0.7
		c1.9,3.4,3.9,6.7,5.8,10.1c0.2,0.3,0.2,0.9,0,1.2c-1.9,3.4-3.9,6.7-5.8,10.1c-0.3,0.6-0.7,0.7-1.3,0.7c-3.7,0-7.5,0-11.2-0.1
		c-0.8,0-1.2,0.2-1.6,0.9c-1.7,3-3.4,6-5.2,9c-0.3,0.6-0.4,1,0,1.5c1.8,3,3.5,6,5.2,9.1c0.3,0.6,0.7,0.8,1.3,0.8c3.6,0,7.3,0,10.9,0
		c0.7,0,1.1,0.2,1.4,0.8c1.8,3.2,3.6,6.4,5.4,9.6c0.3,0.6,0.7,0.8,1.3,0.8c3.5,0,7,0,10.5,0.1c0.7,0,1-0.2,1.3-0.8
		c1.8-3.2,3.7-6.4,5.6-9.6c0.3-0.5,0.6-0.7,1.3-0.7c3.9,0,7.7,0,11.6,0c0.7,0,1,0.3,1.3,0.8c1.8,3.2,3.6,6.3,5.4,9.5
		c0.4,0.7,0.8,0.9,1.5,0.9c3.5,0,7,0,10.5,0c1,0,1.4,0.3,1.9,1.1c1.7,3.1,3.5,6.1,5.2,9.2c0.2,0.3,0.4,0.6,0.6,0.9
		c0,0.2,0,0.4,0,0.6c-0.3,0.5-0.7,0.9-0.9,1.4c-1.7,3-3.5,5.9-5.2,8.9c-0.3,0.6-0.7,0.8-1.4,0.8c-3.5-0.1-7,0-10.5-0.1
		c-1,0-1.4,0.3-1.9,1.1c-1.8,3.1-3.6,6.2-5.4,9.3c-0.3,0.6-0.7,0.8-1.3,0.8c-3.6,0-7.2,0-10.8,0c-0.7,0-1,0.2-1.3,0.8
		c-1.8,3.2-3.7,6.3-5.5,9.5c-0.4,0.6-0.7,0.9-1.5,0.9c-3.6,0-7.1,0-10.7,0c-0.7,0-1.2,0.2-1.5,0.8c-1.7,3-3.5,6.1-5.3,9.1
		c-0.3,0.5-0.3,0.9,0,1.4c1.8,3.2,3.7,6.4,5.5,9.6c0.4,0.7,0.8,0.8,1.5,0.8c3.6,0,7.1,0,10.7,0c0.7,0,1.1,0.2,1.5,0.9
		c1.8,3.3,3.7,6.6,5.6,9.8c0.3,0.6,0.3,1,0,1.6c-1.9,3.3-3.9,6.6-5.8,9.9c-0.3,0.6-0.7,0.7-1.4,0.7c-3.6,0-7.2,0-10.8-0.1
		c-0.7,0-1.1,0.2-1.4,0.8c-1.8,3.2-3.7,6.4-5.6,9.6c-0.3,0.5-0.6,0.7-1.3,0.7c-3.9,0-7.7-0.1-11.6,0c-0.6,0-1-0.2-1.2-0.7
		c-1.8-3.2-3.7-6.4-5.5-9.7c-0.3-0.5-0.6-0.7-1.3-0.7c-3.6,0-7.3,0-10.9,0c-0.8,0-1.1-0.3-1.5-0.9c-1.8-3.2-3.6-6.3-5.4-9.5
		c-0.3-0.6-0.7-0.8-1.3-0.8c-3.4,0-6.8,0-10.2,0c-0.7,0-1.1,0.2-1.4,0.8c-1.8,3.2-3.7,6.4-5.6,9.6c-0.3,0.6-0.7,0.8-1.3,0.8
		c-3.6,0-7.3,0-10.9-0.1c-0.7,0-1,0.2-1.3,0.8c-1.8,3.2-3.7,6.4-5.6,9.6c-0.3,0.6-0.7,0.8-1.3,0.8c-3.8,0-7.6-0.1-11.4,0
		c-0.7,0-1.1-0.2-1.4-0.8c-1.8-3.1-3.6-6.2-5.3-9.4c-0.4-0.7-0.8-0.9-1.6-0.9c-3.6,0-7.2,0-10.8,0c-0.7,0-1-0.2-1.3-0.8
		c-1.8-3.2-3.6-6.3-5.4-9.5c-0.3-0.5-0.6-0.7-1.3-0.7c-3.5,0-6.9,0-10.4-0.1c-0.7,0-1,0.2-1.4,0.8c-1.8,3.2-3.7,6.4-5.6,9.6
		c-0.3,0.5-0.6,0.7-1.3,0.7c-3.9,0-7.8-0.1-11.7,0c-0.6,0-0.9-0.2-1.1-0.7c-1.8-3.2-3.6-6.3-5.4-9.5c-0.4-0.7-0.8-0.9-1.6-0.9
		c-3.6,0-7.3,0-10.9,0c-0.6,0-0.9-0.2-1.2-0.7c-1.9-3.4-3.8-6.8-5.8-10.1c-0.3-0.5-0.3-0.9,0-1.3c1.9-3.1,3.7-6.3,5.5-9.4
		c0.4-0.6,0.4-1.1,0-1.7c-1.8-3.1-3.6-6.2-5.4-9.4c-0.3-0.6-0.7-0.8-1.3-0.8c-3.6,0-7.2,0-10.8,0c-0.7,0-1.1-0.2-1.5-0.8
		c-1.8-3.3-3.7-6.6-5.6-9.8c-0.3-0.6-0.3-1,0-1.6c1.9-3.2,3.7-6.3,5.6-9.5c0.3-0.6,0.3-1,0-1.6c-1.8-3-3.5-6.1-5.3-9.2
		c-0.3-0.6-0.7-0.8-1.3-0.8c-3.6,0-7.3,0-10.9,0c-0.7,0-1.1-0.2-1.4-0.8c-1.9-3.3-3.8-6.6-5.7-9.9c-0.1-0.1-0.2-0.2-0.4-0.4
		C4.6,132.7,4.6,132.5,4.6,132.3z M17.7,121.9C17.7,121.9,17.7,121.9,17.7,121.9c-1.8-0.1-3.6,0-5.4-0.1c-0.6,0-1,0.2-1.3,0.7
		c-1.8,3.1-3.6,6.2-5.4,9.3c-0.2,0.3-0.2,1,0,1.3c1.7,3.1,3.5,6.3,5.4,9.4c0.2,0.3,0.7,0.7,1.1,0.7c3.6,0.1,7.2,0.1,10.8,0.1
		c0.4,0,0.9-0.3,1.1-0.6c1.9-3.1,3.7-6.3,5.6-9.5c0.3-0.5,0.3-0.9,0-1.3c-1.8-3.1-3.6-6.2-5.3-9.3c-0.3-0.6-0.7-0.8-1.4-0.8
		C21.2,121.9,19.5,121.9,17.7,121.9z M208.8,99.1C208.8,99.1,208.8,99.1,208.8,99.1c1.9,0,3.7,0.1,5.6,0c0.4,0,0.9-0.3,1.1-0.6
		c1.9-3.1,3.7-6.3,5.5-9.4c0.2-0.3,0.2-1,0-1.3c-1.7-3.1-3.6-6.3-5.3-9.4c-0.3-0.5-0.6-0.7-1.2-0.7c-3.6,0-7.3,0-10.9,0
		c-0.4,0-0.9,0.3-1.1,0.6c-1.9,3.1-3.7,6.3-5.5,9.4c-0.2,0.3-0.2,0.9,0,1.2c1.8,3.2,3.6,6.4,5.5,9.6c0.2,0.3,0.7,0.6,1.1,0.6
		C205.2,99.1,207,99.1,208.8,99.1z M170.2,98.7C170.2,98.8,170.2,98.8,170.2,98.7c1.8,0.1,3.6,0.1,5.5,0.1c0.3,0,0.8-0.3,1-0.5
		c1.9-3.2,3.8-6.4,5.6-9.7c0.2-0.3,0.2-0.8,0-1.1c-1.8-3.2-3.6-6.3-5.4-9.5c-0.2-0.3-0.7-0.6-1.1-0.6c-3.6-0.1-7.2-0.1-10.8-0.1
		c-0.6,0-1,0.2-1.3,0.7c-1.8,3.1-3.6,6.2-5.4,9.3c-0.2,0.3-0.2,0.9,0,1.2c1.8,3.2,3.6,6.4,5.5,9.6c0.2,0.3,0.7,0.6,1.1,0.6
		C166.6,98.8,168.4,98.7,170.2,98.7z M55.7,76.5C55.7,76.5,55.7,76.5,55.7,76.5c1.7,0.1,3.5,0.1,5.2,0.1c0.6,0,1-0.1,1.3-0.7
		c1.8-3.2,3.7-6.3,5.5-9.5c0.2-0.3,0.2-0.9,0-1.2c-1.7-3.1-3.5-6.3-5.4-9.4c-0.2-0.3-0.7-0.6-1-0.7C57.7,55,54,55,50.4,55
		c-0.4,0-0.9,0.3-1.1,0.6c-1.9,3.1-3.7,6.3-5.5,9.4c-0.2,0.3-0.2,0.9,0,1.2c1.8,3.2,3.6,6.3,5.4,9.5c0.2,0.4,0.8,0.7,1.2,0.7
		C52.2,76.5,54,76.5,55.7,76.5z M132.1,232.3C132.1,232.3,132.1,232.3,132.1,232.3c1.8,0.1,3.6,0.1,5.4,0.1c0.6,0,1-0.2,1.3-0.7
		c1.8-3.1,3.6-6.2,5.4-9.4c0.2-0.3,0.2-0.9,0-1.2c-1.8-3.2-3.6-6.4-5.5-9.6c-0.2-0.3-0.7-0.6-1.1-0.6c-3.6-0.1-7.2-0.1-10.8-0.1
		c-0.4,0-0.9,0.3-1.1,0.6c-1.9,3.1-3.7,6.3-5.5,9.5c-0.2,0.3-0.2,1,0,1.3c1.7,3.1,3.5,6.2,5.3,9.3c0.3,0.5,0.7,0.7,1.3,0.7
		C128.5,232.2,130.3,232.3,132.1,232.3z M170.3,55C170.3,55,170.3,55,170.3,55c-1.7,0-3.5,0-5.2-0.1c-0.6,0-1,0.2-1.3,0.7
		c-1.8,3.2-3.7,6.3-5.5,9.4c-0.2,0.3-0.2,0.9,0,1.2c1.8,3.2,3.6,6.3,5.4,9.5c0.2,0.3,0.7,0.6,1.1,0.6c3.6,0.1,7.2,0.1,10.8,0.1
		c0.4,0,1-0.3,1.2-0.6c1.9-3.1,3.7-6.3,5.5-9.5c0.2-0.3,0.1-0.8,0-1.1c-1.8-3.2-3.6-6.4-5.5-9.6c-0.2-0.3-0.8-0.6-1.2-0.6
		C173.9,54.9,172.1,55,170.3,55z M208.4,232.3C208.4,232.3,208.4,232.3,208.4,232.3c1.9,0.1,3.7,0.1,5.6,0c0.3,0,0.8-0.3,1-0.5
		c1.9-3.2,3.8-6.4,5.6-9.6c0.2-0.3,0.2-0.8,0-1c-1.8-3.2-3.7-6.4-5.5-9.6c-0.2-0.3-0.6-0.6-1-0.6c-3.6-0.1-7.2-0.1-10.8-0.1
		c-0.4,0-1,0.3-1.2,0.6c-1.9,3.1-3.7,6.3-5.5,9.5c-0.2,0.3-0.2,0.9,0,1.2c1.7,3.1,3.5,6.3,5.4,9.4c0.2,0.4,0.8,0.7,1.2,0.7
		C204.9,232.4,206.6,232.3,208.4,232.3z M151.3,43.9C151.3,43.9,151.3,43.8,151.3,43.9c-1.8-0.1-3.6-0.1-5.5,0
		c-0.4,0-0.9,0.3-1.1,0.6c-1.9,3.1-3.7,6.3-5.5,9.4c-0.2,0.3-0.2,0.9,0,1.2c1.8,3.2,3.6,6.3,5.4,9.5c0.2,0.3,0.8,0.6,1.1,0.7
		c3.6,0.1,7.1,0.1,10.7,0.1c0.4,0,0.9-0.3,1.1-0.7c1.9-3.1,3.7-6.3,5.5-9.4c0.3-0.5,0.3-0.9,0-1.5c-1.8-3.1-3.5-6.2-5.3-9.2
		c-0.2-0.3-0.7-0.6-1.1-0.7C154.8,43.8,153,43.9,151.3,43.9z M208.4,121.8C208.4,121.7,208.4,121.7,208.4,121.8
		c-1.8-0.1-3.6,0-5.4-0.1c-0.6,0-1,0.2-1.3,0.7c-1.8,3.1-3.6,6.2-5.4,9.3c-0.3,0.5-0.3,0.9,0,1.4c1.8,3.1,3.6,6.2,5.3,9.3
		c0.3,0.5,0.6,0.8,1.2,0.8c3.6,0,7.1,0,10.7,0c0.4,0,1-0.3,1.2-0.6c1.9-3.1,3.7-6.3,5.5-9.4c0.2-0.3,0.2-1,0-1.3
		c-1.7-3.1-3.5-6.3-5.4-9.4c-0.2-0.3-0.7-0.6-1.1-0.7C212,121.7,210.2,121.8,208.4,121.8z M55.9,188.7
		C55.9,188.7,55.9,188.7,55.9,188.7c-1.8,0-3.6-0.1-5.4,0c-0.4,0-1,0.3-1.2,0.6c-1.9,3.1-3.6,6.2-5.5,9.3c-0.3,0.5-0.3,0.9,0,1.5
		c1.8,3.1,3.6,6.2,5.4,9.4c0.3,0.5,0.6,0.7,1.2,0.7c3.6,0,7.1,0,10.7,0c0.6,0,1-0.2,1.3-0.7c1.8-3.1,3.6-6.2,5.4-9.3
		c0.3-0.5,0.3-0.9,0-1.4c-1.8-3.1-3.6-6.2-5.3-9.3c-0.3-0.5-0.7-0.7-1.3-0.7C59.4,188.7,57.7,188.7,55.9,188.7z M55.8,187.8
		C55.8,187.8,55.8,187.8,55.8,187.8c1.8,0,3.6,0,5.4,0c0.6,0,0.9-0.1,1.2-0.6c1.8-3.2,3.7-6.3,5.5-9.4c0.2-0.3,0.2-0.8,0-1.1
		c-1.8-3.2-3.6-6.5-5.5-9.6c-0.2-0.3-0.6-0.6-1-0.6c-3.6-0.1-7.3-0.1-10.9,0c-0.4,0-0.9,0.3-1.1,0.6c-1.9,3.1-3.7,6.3-5.5,9.4
		c-0.3,0.5-0.3,0.9,0,1.5c1.8,3.1,3.5,6.2,5.3,9.3c0.2,0.3,0.7,0.6,1.1,0.7C52.2,187.8,54,187.8,55.8,187.8z M227.7,221.2
		C227.7,221.2,227.7,221.2,227.7,221.2c1.8,0,3.6,0,5.5,0c0.3,0,0.8-0.3,1-0.5c1.9-3.2,3.8-6.4,5.6-9.6c0.2-0.3,0.2-0.8,0-1
		c-1.8-3.2-3.6-6.5-5.5-9.6c-0.2-0.3-0.6-0.6-1-0.6c-3.6-0.1-7.3-0.1-10.9,0c-0.4,0-0.9,0.3-1.1,0.6c-1.9,3.1-3.7,6.3-5.5,9.4
		c-0.2,0.3-0.2,1,0,1.3c1.8,3.2,3.6,6.3,5.4,9.5c0.2,0.3,0.7,0.6,1.1,0.6C224,221.3,225.9,221.2,227.7,221.2z M246.7,121.8
		C246.7,121.8,246.7,121.8,246.7,121.8c-1.8,0-3.6,0-5.4,0c-0.6,0-1,0.2-1.3,0.7c-1.8,3.1-3.6,6.2-5.4,9.4c-0.2,0.3-0.2,0.9,0,1.2
		c1.8,3.2,3.6,6.4,5.5,9.6c0.2,0.3,0.7,0.6,1.1,0.6c3.6,0.1,7.2,0.1,10.8,0c0.4,0,0.9-0.3,1.1-0.6c1.9-3.2,3.8-6.4,5.6-9.6
		c0.2-0.3,0.1-0.8,0-1.1c-1.8-3.2-3.6-6.3-5.4-9.5c-0.2-0.3-0.7-0.6-1.1-0.6C250.3,121.8,248.5,121.8,246.7,121.8z M43.4,88
		c1.9,3.4,3.9,6.8,5.8,10.1c0.2,0.3,0.7,0.5,1,0.5c3.6,0.1,7.3,0.1,10.9,0c0.4,0,0.9-0.3,1.1-0.6c1.9-3.1,3.7-6.3,5.5-9.4
		c0.2-0.3,0.2-0.8,0-1.1c-1.8-3.3-3.7-6.5-5.6-9.7c-0.2-0.3-0.6-0.5-0.9-0.5c-3.7,0-7.4,0-11,0c-0.3,0-0.7,0.2-0.8,0.4
		C47.4,81.1,45.4,84.6,43.4,88z M36.7,155.2C36.7,155.2,36.7,155.2,36.7,155.2c-1.8,0-3.6,0-5.4,0c-0.6,0-1,0.2-1.3,0.7
		c-1.8,3.1-3.6,6.2-5.4,9.2c-0.3,0.5-0.3,0.9,0,1.4c1.8,3.1,3.6,6.2,5.4,9.3c0.2,0.3,0.7,0.7,1.1,0.7c3.6,0.1,7.2,0.1,10.8,0
		c0.4,0,0.9-0.3,1.1-0.6c1.9-3.1,3.7-6.3,5.5-9.4c0.3-0.5,0.3-0.9,0-1.5c-1.8-3.1-3.6-6.2-5.3-9.3c-0.3-0.6-0.7-0.7-1.3-0.7
		C40.3,155.3,38.5,155.2,36.7,155.2z M74.9,221.2C74.9,221.2,74.9,221.2,74.9,221.2c1.8,0,3.6,0,5.4,0c0.6,0,1-0.1,1.3-0.7
		c1.8-3.1,3.6-6.2,5.4-9.4c0.2-0.3,0.2-1,0-1.3c-1.8-3.2-3.6-6.3-5.4-9.5c-0.2-0.3-0.7-0.6-1-0.6c-3.6-0.1-7.2-0.1-10.8,0
		c-0.4,0-0.9,0.3-1.1,0.7c-1.9,3.1-3.7,6.3-5.5,9.4c-0.2,0.3-0.2,0.9,0,1.2c1.8,3.2,3.6,6.3,5.4,9.5c0.2,0.3,0.8,0.6,1.2,0.6
		C71.3,221.3,73.1,221.2,74.9,221.2z M189.3,109.8C189.3,109.8,189.3,109.8,189.3,109.8c1.8,0.1,3.6,0,5.4,0.1c0.6,0,1-0.1,1.4-0.7
		c1.8-3.1,3.6-6.2,5.3-9.3c0.2-0.3,0.2-1,0-1.3c-1.7-3.1-3.6-6.3-5.3-9.4c-0.3-0.5-0.6-0.8-1.2-0.8c-3.6,0-7.1,0-10.7,0
		c-0.4,0-0.9,0.3-1.1,0.7c-1.9,3.1-3.7,6.3-5.5,9.5c-0.2,0.3-0.2,0.9,0,1.2c1.7,3.1,3.5,6.2,5.3,9.3c0.3,0.6,0.7,0.8,1.3,0.7
		C185.8,109.8,187.6,109.8,189.3,109.8z M265.7,154.4C265.7,154.4,265.7,154.4,265.7,154.4c1.9,0,3.7,0.1,5.6,0c0.3,0,0.8-0.3,1-0.5
		c1.9-3.2,3.7-6.3,5.5-9.5c0.2-0.3,0.2-0.9,0-1.2c-1.8-3.2-3.6-6.3-5.4-9.5c-0.3-0.5-0.6-0.7-1.2-0.7c-3.6,0-7.1,0-10.7,0
		c-0.6,0-0.9,0.2-1.2,0.7c-1.8,3.1-3.6,6.2-5.4,9.3c-0.3,0.5-0.3,0.8,0,1.3c1.8,3.1,3.6,6.2,5.4,9.4c0.3,0.6,0.7,0.7,1.3,0.7
		C262.2,154.4,263.9,154.4,265.7,154.4z M36.6,66.1C36.6,66.1,36.6,66.1,36.6,66.1c-1.8,0-3.6-0.1-5.5,0c-0.3,0-0.8,0.3-1,0.6
		c-1.9,3.2-3.8,6.4-5.6,9.6c-0.2,0.3-0.2,0.8,0,1c1.8,3.2,3.7,6.5,5.5,9.6c0.2,0.3,0.6,0.6,1,0.6c3.6,0.1,7.3,0.1,10.9,0.1
		c0.4,0,0.9-0.3,1.1-0.6c1.9-3.1,3.7-6.3,5.5-9.5c0.2-0.3,0.2-0.8,0-1.1c-1.8-3.2-3.6-6.4-5.5-9.5c-0.2-0.3-0.8-0.6-1.2-0.6
		C40.2,66.1,38.4,66.1,36.6,66.1z M94,143.3C94,143.3,94,143.4,94,143.3c1.7,0.1,3.5,0.1,5.2,0.1c0.7,0,1-0.2,1.4-0.8
		c1.8-3.1,3.6-6.2,5.3-9.3c0.2-0.3,0.2-1,0-1.3c-1.8-3.2-3.6-6.3-5.4-9.5c-0.2-0.4-0.8-0.7-1.2-0.7c-3.5-0.1-7-0.1-10.5-0.1
		c-0.4,0-1,0.3-1.2,0.6c-1.9,3.1-3.7,6.3-5.5,9.4c-0.3,0.5-0.3,0.8,0,1.3c1.8,3.1,3.6,6.2,5.3,9.3c0.3,0.6,0.7,0.8,1.4,0.8
		C90.5,143.3,92.2,143.3,94,143.3z M208.4,144.1C208.4,144.1,208.4,144,208.4,144.1c-1.8,0-3.6,0-5.4-0.1c-0.6,0-1,0.1-1.3,0.7
		c-1.8,3.1-3.6,6.2-5.4,9.4c-0.2,0.3-0.2,0.9,0,1.2c1.8,3.2,3.6,6.4,5.5,9.5c0.2,0.3,0.7,0.6,1,0.6c3.6,0.1,7.2,0.1,10.8,0
		c0.4,0,0.9-0.3,1.1-0.6c1.9-3.1,3.7-6.3,5.5-9.4c0.2-0.3,0.2-1,0-1.3c-1.7-3.1-3.6-6.3-5.3-9.4c-0.3-0.6-0.7-0.7-1.3-0.7
		C211.9,144.1,210.2,144.1,208.4,144.1z M246.6,144.1C246.6,144.1,246.6,144.1,246.6,144.1c-1.8,0-3.6-0.1-5.4,0
		c-0.4,0-1,0.3-1.2,0.6c-1.9,3.1-3.7,6.3-5.5,9.4c-0.2,0.3-0.2,0.8,0,1.1c1.8,3.2,3.6,6.5,5.5,9.6c0.2,0.3,0.6,0.6,1,0.6
		c3.6,0,7.3,0.1,10.9,0c0.4,0,0.9-0.3,1-0.6c1.8-3.1,3.6-6.2,5.5-9.3c0.3-0.5,0.3-0.8,0-1.3c-1.8-3.1-3.6-6.3-5.5-9.4
		c-0.2-0.3-0.7-0.6-1.1-0.7C250.2,144,248.4,144.1,246.6,144.1z M113.2,176.8C113.2,176.8,113.2,176.8,113.2,176.8
		c1.7,0,3.5,0,5.2,0.1c0.6,0,1-0.1,1.3-0.7c1.8-3.1,3.6-6.2,5.4-9.3c0.2-0.3,0.2-0.8,0-1.1c-1.8-3.2-3.6-6.5-5.5-9.6
		c-0.2-0.3-0.8-0.6-1.2-0.7c-3.5-0.1-7.1-0.1-10.6-0.1c-0.4,0-0.9,0.3-1.1,0.6c-1.9,3.1-3.7,6.3-5.5,9.5c-0.2,0.3-0.2,0.9,0,1.2
		c1.8,3.2,3.6,6.3,5.4,9.5c0.2,0.3,0.7,0.7,1.1,0.7C109.6,176.8,111.4,176.8,113.2,176.8z M227.4,176.6
		C227.4,176.6,227.4,176.7,227.4,176.6c1.8,0,3.6,0.1,5.5,0c0.4,0,0.9-0.2,1-0.5c1.9-3.2,3.8-6.4,5.6-9.6c0.2-0.3,0.2-0.8,0-1
		c-1.8-3.3-3.7-6.5-5.6-9.7c-0.2-0.3-0.6-0.5-0.9-0.5c-3.6-0.1-7.3-0.1-10.9-0.1c-0.4,0-0.9,0.3-1.1,0.6c-1.9,3.1-3.7,6.3-5.5,9.5
		c-0.2,0.3-0.2,0.8,0,1.1c1.8,3.2,3.6,6.4,5.5,9.5c0.2,0.3,0.7,0.6,1.1,0.6C223.8,176.7,225.6,176.6,227.4,176.6z M189.3,221.2
		C189.3,221.2,189.3,221.2,189.3,221.2c1.8,0,3.6,0.1,5.4,0c0.4,0,0.9-0.3,1.1-0.6c1.9-3.1,3.7-6.3,5.5-9.5c0.2-0.3,0.2-0.9,0-1.2
		c-1.8-3.1-3.5-6.3-5.4-9.4c-0.2-0.3-0.7-0.7-1.1-0.7c-3.6-0.1-7.1-0.1-10.7-0.1c-0.6,0-1,0.2-1.3,0.7c-1.8,3.2-3.7,6.3-5.5,9.4
		c-0.2,0.3-0.2,0.9,0,1.2c1.8,3.1,3.6,6.3,5.3,9.4c0.3,0.5,0.7,0.7,1.3,0.7C185.8,221.2,187.5,221.2,189.3,221.2z M208.7,188.7
		C208.7,188.7,208.7,188.7,208.7,188.7c-1.8,0-3.6,0-5.4,0c-0.6,0-0.9,0.2-1.3,0.7c-1.8,3.1-3.6,6.2-5.4,9.2c-0.3,0.6-0.4,1,0,1.6
		c1.8,3.1,3.6,6.2,5.3,9.3c0.3,0.6,0.7,0.7,1.3,0.7c3.5,0,7,0,10.5,0c0.6,0,1-0.2,1.4-0.8c1.8-3.1,3.6-6.2,5.4-9.3
		c0.3-0.5,0.3-0.9,0-1.5c-1.8-3-3.5-6.1-5.3-9.2c-0.3-0.6-0.7-0.8-1.3-0.8C212.2,188.7,210.4,188.7,208.7,188.7z M36.6,154.4
		c0,0,0,0.1,0,0.1c1.8,0,3.6,0,5.3,0c0.6,0,1-0.2,1.3-0.7c1.8-3.2,3.6-6.3,5.5-9.4c0.3-0.5,0.3-0.8,0-1.3c-1.8-3.1-3.6-6.2-5.3-9.3
		c-0.3-0.5-0.6-0.7-1.3-0.7c-3.5,0-7.1,0-10.6-0.1c-0.6,0-1,0.2-1.3,0.7c-1.8,3.2-3.6,6.3-5.5,9.4c-0.3,0.5-0.3,0.8,0,1.3
		c1.8,3.1,3.6,6.2,5.3,9.3c0.3,0.6,0.7,0.7,1.3,0.7C33.1,154.4,34.9,154.4,36.6,154.4z M227.5,132.9
		C227.5,132.9,227.5,132.9,227.5,132.9c-1.8,0-3.6,0-5.4,0c-0.6,0-1,0.2-1.3,0.7c-1.8,3.1-3.6,6.2-5.4,9.2c-0.3,0.6-0.2,0.9,0,1.5
		c1.8,3.1,3.6,6.2,5.4,9.4c0.3,0.5,0.6,0.8,1.2,0.7c3.5,0,7.1,0,10.6,0c0.4,0,0.9-0.3,1.1-0.6c1.9-3.1,3.7-6.2,5.5-9.4
		c0.2-0.3,0.2-1,0-1.3c-1.7-3.1-3.5-6.3-5.4-9.4c-0.2-0.3-0.8-0.6-1.2-0.6C231.1,132.9,229.3,132.9,227.5,132.9z M55.8,99.6
		C55.8,99.6,55.8,99.5,55.8,99.6c-1.8,0-3.6-0.1-5.4,0c-0.4,0-0.9,0.3-1.1,0.6c-1.8,3.1-3.6,6.1-5.4,9.2c-0.2,0.3-0.2,1,0,1.3
		c1.8,3.2,3.6,6.4,5.5,9.6c0.2,0.3,0.7,0.7,1.1,0.7c3.5,0.1,7,0.1,10.5,0.1c0.6,0,1-0.2,1.3-0.7c1.8-3.1,3.6-6.2,5.4-9.3
		c0.3-0.5,0.3-0.9,0-1.5c-1.8-3.1-3.6-6.2-5.3-9.3c-0.3-0.6-0.7-0.8-1.4-0.8C59.3,99.6,57.6,99.6,55.8,99.6z M75,66.2
		C75,66.2,75,66.1,75,66.2c-1.8-0.1-3.6-0.1-5.4-0.1c-0.4,0-0.9,0.3-1.1,0.6c-1.9,3.2-3.8,6.4-5.6,9.6c-0.2,0.3-0.2,0.8,0,1.1
		c1.8,3.2,3.6,6.4,5.5,9.6c0.2,0.3,0.6,0.6,1,0.6c3.5,0.1,7.1,0.1,10.6,0.1c0.4,0,0.9-0.3,1.1-0.6c1.9-3.2,3.8-6.5,5.7-9.8
		c0.2-0.3,0.2-0.9,0-1.2c-1.7-3.1-3.5-6.1-5.3-9.2c-0.2-0.3-0.7-0.6-1.1-0.6C78.6,66.2,76.8,66.2,75,66.2z M75,177.6
		C75,177.5,75,177.5,75,177.6c-1.8,0-3.5,0-5.3,0c-0.6,0-0.9,0.1-1.2,0.6c-1.8,3.2-3.7,6.3-5.5,9.5c-0.2,0.3-0.2,0.9,0,1.2
		c1.8,3.2,3.6,6.3,5.4,9.5c0.2,0.3,0.7,0.7,1.1,0.7c3.6,0.1,7.1,0.1,10.7,0c0.4,0,0.9-0.3,1.1-0.7c1.9-3.1,3.7-6.2,5.4-9.3
		c0.2-0.3,0.2-0.9,0-1.2c-1.8-3.2-3.6-6.4-5.5-9.6c-0.2-0.3-0.8-0.6-1.2-0.6C78.5,177.5,76.7,177.6,75,177.6z M151.1,87.5
		C151.1,87.5,151.1,87.5,151.1,87.5c1.8,0,3.6,0,5.5,0c0.3,0,0.8-0.2,1-0.5c1.9-3.2,3.7-6.3,5.5-9.5c0.2-0.3,0.2-0.8,0-1.1
		c-1.8-3.2-3.6-6.5-5.5-9.7c-0.2-0.3-0.6-0.6-1-0.6c-3.6,0-7.3-0.1-10.9,0c-0.3,0-0.8,0.3-1,0.6c-1.9,3.1-3.7,6.3-5.5,9.4
		c-0.2,0.3-0.2,0.9,0,1.2c1.8,3.2,3.6,6.4,5.5,9.6c0.2,0.3,0.7,0.6,1.1,0.6C147.5,87.5,149.3,87.5,151.1,87.5z M131.9,76.4
		C131.9,76.4,131.9,76.4,131.9,76.4c1.8,0,3.6,0.1,5.4,0c0.4,0,0.9-0.3,1.1-0.7c1.9-3.1,3.7-6.3,5.5-9.4c0.2-0.3,0.2-0.9,0-1.2
		c-1.8-3.1-3.6-6.3-5.3-9.4c-0.3-0.5-0.6-0.8-1.2-0.8c-3.6,0-7.1,0-10.7,0c-0.6,0-0.9,0.2-1.2,0.7c-1.8,3.1-3.5,6.1-5.3,9.2
		c-0.3,0.5-0.3,0.8,0,1.3c1.9,3.2,3.6,6.4,5.5,9.5c0.2,0.3,0.7,0.6,1.1,0.7C128.4,76.4,130.2,76.4,131.9,76.4z M112.9,87.5
		C112.9,87.5,112.9,87.5,112.9,87.5c1.8,0,3.6,0.1,5.5,0c0.4,0,0.9-0.3,1.1-0.6c1.8-3.1,3.6-6.2,5.5-9.3c0.3-0.5,0.3-0.9,0-1.3
		c-1.8-3.1-3.6-6.3-5.4-9.5c-0.3-0.6-0.7-0.7-1.3-0.7c-3.5,0-7,0-10.5,0c-0.7,0-1,0.2-1.3,0.8c-1.8,3.1-3.5,6.1-5.3,9.2
		c-0.3,0.5-0.4,0.9,0,1.4c1.8,3.1,3.6,6.2,5.4,9.4c0.3,0.6,0.7,0.7,1.3,0.7C109.4,87.5,111.1,87.5,112.9,87.5z M208.4,187.7
		C208.4,187.7,208.4,187.7,208.4,187.7c1.7,0.1,3.4,0,5.1,0.1c0.7,0,1.1-0.2,1.4-0.8c1.7-3.1,3.5-6.1,5.3-9.2c0.3-0.5,0.3-0.9,0-1.5
		c-1.8-3.1-3.6-6.3-5.4-9.4c-0.2-0.4-0.8-0.7-1.2-0.7c-3.5-0.1-7.1-0.1-10.6-0.1c-0.6,0-0.9,0.2-1.2,0.7c-1.8,3.1-3.6,6.2-5.4,9.2
		c-0.3,0.6-0.3,0.9,0,1.4c1.8,3.1,3.6,6.2,5.4,9.4c0.3,0.6,0.7,0.8,1.3,0.8C204.9,187.6,206.7,187.7,208.4,187.7z M151.3,221.2
		C151.3,221.2,151.3,221.2,151.3,221.2c1.8,0,3.6,0.1,5.4,0c0.4,0,1-0.3,1.2-0.6c1.9-3.1,3.7-6.2,5.4-9.3c0.2-0.3,0.2-0.9,0-1.2
		c-1.8-3.2-3.6-6.4-5.5-9.6c-0.2-0.3-0.8-0.6-1.1-0.6c-3.5-0.1-7-0.1-10.5-0.1c-0.6,0-1,0.1-1.3,0.7c-1.8,3.2-3.7,6.3-5.5,9.4
		c-0.2,0.3-0.2,0.9,0,1.2c1.7,3.1,3.6,6.3,5.3,9.4c0.3,0.6,0.7,0.8,1.4,0.8C147.8,221.2,149.6,221.2,151.3,221.2z M94,165.5
		C94,165.5,94,165.5,94,165.5c1.8,0,3.6,0.1,5.4,0c0.4,0,0.9-0.3,1.1-0.6c1.9-3.2,3.7-6.3,5.5-9.5c0.2-0.3,0.1-0.8,0-1
		c-1.8-3.2-3.6-6.5-5.5-9.7c-0.2-0.3-0.7-0.6-1.1-0.6c-3.6,0-7.2,0-10.8,0c-0.4,0-0.9,0.3-1.1,0.6c-1.9,3.1-3.7,6.3-5.5,9.4
		c-0.2,0.3-0.2,0.8,0,1.1c1.8,3.2,3.6,6.4,5.5,9.6c0.2,0.3,0.7,0.6,1.1,0.7C90.5,165.6,92.3,165.5,94,165.5z M132,121
		C132,121,132,121,132,121c1.8,0,3.6,0,5.4,0.1c0.7,0,1-0.2,1.3-0.8c1.8-3.1,3.5-6.1,5.3-9.1c0.3-0.5,0.3-0.9,0-1.5
		c-1.8-3.1-3.6-6.2-5.4-9.4c-0.3-0.5-0.6-0.7-1.3-0.7c-3.5,0-7.1,0-10.6,0c-0.4,0-0.9,0.3-1.1,0.6c-1.9,3.1-3.7,6.2-5.4,9.3
		c-0.2,0.3-0.2,1,0,1.3c1.8,3.2,3.6,6.3,5.4,9.5c0.3,0.5,0.6,0.7,1.2,0.6C128.5,120.9,130.2,121,132,121z M36.9,132.3
		C36.9,132.3,36.9,132.3,36.9,132.3c1.7,0,3.5,0,5.2,0c0.6,0,1-0.1,1.3-0.7c1.8-3.1,3.6-6.2,5.4-9.4c0.2-0.3,0.2-0.8,0-1.1
		c-1.8-3.2-3.6-6.5-5.5-9.6c-0.2-0.3-0.7-0.6-1.1-0.6c-3.6-0.1-7.1-0.1-10.7,0c-0.4,0-0.9,0.3-1.2,0.7c-1.9,3.1-3.7,6.2-5.4,9.3
		c-0.2,0.3-0.2,0.9,0,1.2c1.8,3.2,3.6,6.4,5.5,9.6c0.2,0.3,0.7,0.6,1.1,0.6C33.3,132.3,35.1,132.3,36.9,132.3z M151.2,155.2
		c0,0,0-0.1,0-0.1c-1.8,0-3.6,0-5.4,0c-0.4,0-0.9,0.3-1.1,0.6c-1.9,3.1-3.7,6.3-5.5,9.4c-0.2,0.3-0.2,0.8,0,1.1
		c1.8,3.2,3.6,6.5,5.5,9.6c0.2,0.3,0.7,0.7,1.1,0.7c3.5,0.1,7.1,0,10.6,0.1c0.6,0,0.9-0.2,1.2-0.7c1.8-3.1,3.6-6.2,5.4-9.3
		c0.2-0.3,0.2-1,0-1.3c-1.8-3.2-3.6-6.3-5.4-9.5c-0.2-0.3-0.8-0.6-1.2-0.6C154.8,155.2,153,155.2,151.2,155.2z M189.2,132.8
		C189.2,132.8,189.2,132.8,189.2,132.8c-1.7,0-3.5,0-5.2,0c-0.6,0-1,0.2-1.3,0.7c-1.7,3.1-3.5,6.1-5.3,9.1c-0.3,0.5-0.3,0.9,0,1.4
		c1.8,3.1,3.6,6.3,5.4,9.5c0.3,0.5,0.7,0.7,1.3,0.7c3.5,0,6.9,0,10.4,0.1c0.6,0,1-0.1,1.4-0.7c1.8-3.1,3.6-6.2,5.4-9.2
		c0.3-0.5,0.3-0.9,0-1.4c-1.8-3.1-3.6-6.2-5.4-9.4c-0.3-0.6-0.7-0.8-1.4-0.8C192.7,132.8,190.9,132.8,189.2,132.8z M132.2,121.8
		C132.2,121.8,132.2,121.8,132.2,121.8c-1.8,0-3.6-0.1-5.5,0c-0.4,0-0.9,0.3-1.1,0.6c-1.8,3.1-3.7,6.2-5.4,9.3c-0.2,0.3-0.2,1,0,1.3
		c1.8,3.2,3.6,6.3,5.4,9.5c0.3,0.5,0.6,0.7,1.3,0.7c3.5,0,7.1,0,10.6,0c0.6,0,0.9-0.2,1.2-0.7c1.8-3.1,3.6-6.2,5.4-9.2
		c0.3-0.5,0.4-0.9,0-1.5c-1.8-3.1-3.6-6.3-5.5-9.4c-0.2-0.3-0.7-0.6-1.1-0.6C135.7,121.8,134,121.8,132.2,121.8z M189.5,110.7
		C189.5,110.6,189.5,110.6,189.5,110.7c-1.8,0-3.6-0.1-5.5,0c-0.4,0-1,0.3-1.2,0.6c-1.9,3.1-3.7,6.3-5.5,9.4c-0.3,0.5-0.3,0.9,0,1.5
		c1.8,3,3.5,6.1,5.3,9.2c0.2,0.3,0.7,0.7,1.1,0.7c3.6,0.1,7.1,0.1,10.7,0.1c0.4,0,0.9-0.3,1.1-0.7c1.9-3.1,3.7-6.3,5.5-9.5
		c0.2-0.3,0.2-0.9,0-1.2c-1.8-3.1-3.5-6.3-5.4-9.4c-0.2-0.3-0.7-0.6-1.1-0.6C193,110.6,191.3,110.7,189.5,110.7z M75,110.7
		C75,110.7,75,110.7,75,110.7c-1.8,0-3.6-0.1-5.4,0c-0.4,0-0.9,0.3-1.1,0.6c-1.9,3.1-3.7,6.2-5.4,9.3c-0.2,0.3-0.2,0.9-0.1,1.2
		c1.8,3.2,3.6,6.5,5.5,9.7c0.2,0.3,0.6,0.6,1,0.6c3.6,0.1,7.2,0.1,10.8,0.1c0.4,0,0.9-0.3,1.1-0.6c1.9-3.1,3.7-6.3,5.5-9.4
		c0.2-0.3,0.2-0.9,0-1.2c-1.8-3.2-3.6-6.4-5.5-9.6c-0.2-0.3-0.7-0.6-1.1-0.6C78.6,110.7,76.8,110.7,75,110.7z M74.9,110
		C74.9,110,74.9,110,74.9,110c1.7,0,3.5,0,5.2,0c0.6,0,1-0.2,1.3-0.7c1.8-3.1,3.6-6.2,5.3-9.3c0.2-0.3,0.2-0.9,0-1.2
		c-1.8-3.2-3.6-6.5-5.5-9.6c-0.2-0.3-0.7-0.6-1.1-0.6c-3.6-0.1-7.1-0.1-10.7-0.1c-0.4,0-0.9,0.3-1.1,0.6c-1.9,3.1-3.7,6.3-5.5,9.4
		c-0.2,0.3-0.2,0.9,0,1.2c1.8,3.2,3.6,6.4,5.5,9.5c0.2,0.3,0.7,0.6,1.1,0.7C71.4,110,73.2,110,74.9,110z M151.2,88.4
		C151.2,88.4,151.2,88.4,151.2,88.4c-1.8,0-3.6,0-5.5,0c-0.3,0-0.8,0.3-1,0.5c-1.9,3.1-3.7,6.3-5.5,9.5c-0.2,0.3-0.2,0.8,0,1.1
		c1.8,3.2,3.6,6.4,5.5,9.6c0.2,0.3,0.6,0.6,1,0.6c3.6,0.1,7.2,0.1,10.8,0.1c0.3,0,0.8-0.3,1-0.5c1.9-3.2,3.8-6.4,5.6-9.6
		c0.2-0.3,0.2-0.8,0-1.1c-1.8-3.2-3.6-6.4-5.5-9.5c-0.2-0.3-0.7-0.6-1.1-0.6C154.8,88.3,153,88.4,151.2,88.4z M75,176.7
		C75,176.7,75,176.7,75,176.7c1.8,0,3.6,0.1,5.4,0c0.4,0,0.9-0.3,1.1-0.6c1.9-3.1,3.7-6.3,5.5-9.4c0.2-0.3,0.2-0.9,0-1.2
		c-1.8-3.2-3.6-6.4-5.5-9.5c-0.2-0.3-0.7-0.6-1.1-0.6c-3.6,0-7.1-0.1-10.7,0c-0.4,0-0.9,0.3-1.1,0.6c-1.9,3.1-3.7,6.3-5.5,9.5
		c-0.2,0.3-0.2,0.9,0,1.2c1.8,3.2,3.6,6.3,5.4,9.5c0.2,0.3,0.7,0.6,1.1,0.6C71.3,176.7,73.1,176.7,75,176.7z M113,88.4
		C113,88.3,113,88.3,113,88.4c-1.8,0-3.6,0-5.4-0.1c-0.6,0-1,0.2-1.3,0.7c-1.8,3.1-3.6,6.1-5.3,9.2c-0.2,0.3-0.2,1,0,1.3
		c1.8,3.2,3.6,6.4,5.5,9.6c0.2,0.3,0.7,0.7,1.1,0.7c3.5,0.1,7.1,0.1,10.6,0c0.4,0,0.9-0.3,1.1-0.7c1.9-3.1,3.7-6.2,5.4-9.3
		c0.2-0.3,0.2-0.9,0-1.2c-1.8-3.2-3.6-6.4-5.5-9.6c-0.2-0.3-0.7-0.6-1.1-0.6C116.6,88.3,114.8,88.4,113,88.4z M170.3,210.1
		C170.3,210.1,170.3,210.1,170.3,210.1c1.8,0,3.5,0,5.3,0c0.6,0,0.9-0.2,1.2-0.7c1.8-3.1,3.6-6.2,5.4-9.3c0.3-0.5,0.3-0.9,0-1.4
		c-1.8-3.1-3.5-6.2-5.4-9.3c-0.2-0.3-0.7-0.7-1.1-0.7c-3.6-0.1-7.1,0-10.7-0.1c-0.6,0-1,0.2-1.3,0.8c-1.8,3.1-3.6,6.2-5.3,9.3
		c-0.2,0.3-0.2,0.9,0,1.2c1.8,3.2,3.6,6.4,5.5,9.6c0.2,0.3,0.8,0.6,1.2,0.6C166.8,210.1,168.6,210.1,170.3,210.1z M131.9,98.7
		C131.9,98.7,131.9,98.7,131.9,98.7c1.8,0,3.6,0.1,5.5,0c0.4,0,0.9-0.3,1.1-0.6c1.9-3.1,3.7-6.3,5.5-9.4c0.2-0.3,0.2-0.8,0-1.1
		c-1.8-3.2-3.7-6.5-5.5-9.7c-0.2-0.3-0.7-0.6-1.1-0.6c-3.6-0.1-7.1-0.1-10.7,0c-0.4,0-0.9,0.3-1,0.6c-1.9,3.1-3.7,6.3-5.5,9.4
		c-0.2,0.3-0.2,1,0,1.3c1.7,3.1,3.5,6.3,5.4,9.4c0.2,0.3,0.7,0.6,1.1,0.6C128.4,98.7,130.2,98.7,131.9,98.7z M94,187.8
		C94,187.8,94,187.9,94,187.8c1.8,0,3.5,0,5.3,0c0.6,0,1-0.2,1.3-0.7c1.8-3.1,3.6-6.2,5.4-9.3c0.3-0.5,0.3-0.8,0-1.3
		c-1.8-3.1-3.6-6.2-5.4-9.4c-0.3-0.5-0.6-0.7-1.3-0.7c-3.5,0-7.1,0-10.6,0c-0.6,0-1,0.2-1.3,0.7c-1.8,3.1-3.6,6.1-5.3,9.2
		c-0.2,0.4-0.2,1.1,0,1.4c1.8,3.2,3.6,6.3,5.4,9.5c0.2,0.3,0.8,0.6,1.2,0.6C90.5,187.9,92.3,187.8,94,187.8z M170.3,187.8
		C170.3,187.8,170.3,187.8,170.3,187.8c1.8,0,3.6,0.1,5.4,0c0.4,0,1-0.3,1.2-0.6c1.9-3.1,3.7-6.2,5.4-9.3c0.2-0.3,0.2-0.8,0-1.1
		c-1.8-3.2-3.7-6.4-5.5-9.7c-0.3-0.5-0.6-0.7-1.2-0.7c-3.5,0-7.1,0-10.6,0c-0.4,0-0.9,0.3-1.1,0.7c-1.9,3.1-3.7,6.2-5.4,9.3
		c-0.2,0.3-0.2,0.9,0,1.2c1.8,3.2,3.6,6.3,5.4,9.5c0.3,0.6,0.7,0.7,1.3,0.7C166.8,187.8,168.6,187.8,170.3,187.8z M144.5,199.5
		c-2-3.4-3.9-6.9-5.9-10.3c-0.2-0.3-0.6-0.5-0.9-0.5c-3.6,0-7.2,0-10.8,0c-0.3,0-0.8,0.3-1,0.5c-1.9,3.2-3.8,6.4-5.6,9.6
		c-0.2,0.3-0.2,0.8,0,1c1.8,3.2,3.6,6.5,5.5,9.7c0.2,0.3,0.6,0.5,0.9,0.5c3.7,0,7.4,0,11,0c0.3,0,0.7-0.3,0.9-0.5
		C140.6,206.2,142.5,202.8,144.5,199.5z M151.3,154.4C151.3,154.4,151.3,154.4,151.3,154.4c1.7,0,3.4,0,5.1,0c0.7,0,1-0.2,1.4-0.7
		c1.7-3.1,3.6-6.1,5.3-9.2c0.2-0.3,0.2-1,0-1.3c-1.8-3.2-3.6-6.3-5.4-9.5c-0.3-0.5-0.6-0.8-1.2-0.8c-3.5,0-7.1,0-10.6,0
		c-0.4,0-0.9,0.3-1.1,0.6c-1.9,3.1-3.7,6.3-5.5,9.4c-0.2,0.3-0.2,0.9,0,1.2c1.8,3.2,3.6,6.3,5.4,9.5c0.3,0.6,0.7,0.7,1.3,0.7
		C147.7,154.4,149.5,154.4,151.3,154.4z M113.2,177.5C113.2,177.5,113.2,177.5,113.2,177.5c-1.8,0-3.6,0-5.4,0
		c-0.6,0-0.9,0.1-1.2,0.6c-1.8,3.1-3.6,6.2-5.4,9.4c-0.2,0.3-0.2,1,0,1.3c1.8,3.2,3.6,6.3,5.4,9.5c0.2,0.3,0.7,0.6,1,0.6
		c3.6,0.1,7.1,0.1,10.7,0c0.4,0,0.9-0.3,1.1-0.6c1.9-3.2,3.8-6.4,5.6-9.6c0.2-0.3,0.1-0.8,0-1c-1.8-3.2-3.6-6.4-5.5-9.6
		c-0.2-0.3-0.7-0.6-1.1-0.6C116.8,177.5,115,177.5,113.2,177.5z M55.8,165.5C55.8,165.5,55.8,165.6,55.8,165.5c1.8,0,3.6,0.1,5.4,0
		c0.4,0,1-0.3,1.2-0.6c1.9-3.1,3.6-6.2,5.5-9.3c0.3-0.5,0.2-0.9,0-1.4c-1.8-3.1-3.6-6.2-5.4-9.4c-0.3-0.5-0.6-0.7-1.3-0.7
		c-3.5,0-7,0-10.5-0.1c-0.6,0-0.9,0.2-1.2,0.7c-1.8,3.2-3.7,6.3-5.4,9.4c-0.2,0.3-0.2,0.9,0,1.2c1.8,3.1,3.6,6.3,5.3,9.4
		c0.3,0.5,0.6,0.7,1.2,0.7C52.2,165.5,54,165.5,55.8,165.5z M112.9,221.1C112.9,221.2,112.9,221.2,112.9,221.1
		c1.8,0.1,3.6,0.1,5.5,0c0.3,0,0.8-0.2,1-0.5c1.9-3.2,3.8-6.5,5.6-9.7c0.2-0.3,0.2-0.8,0-1c-1.8-3.2-3.6-6.4-5.5-9.6
		c-0.2-0.3-0.6-0.5-0.9-0.5c-3.6-0.1-7.2-0.1-10.8-0.1c-0.3,0-0.8,0.3-1,0.6c-1.9,3.2-3.8,6.5-5.7,9.8c-0.2,0.3-0.2,0.8,0,1.1
		c1.7,3.1,3.5,6.1,5.2,9.2c0.3,0.5,0.7,0.7,1.3,0.7C109.4,221.1,111.2,221.1,112.9,221.1z M189.3,176.6
		C189.3,176.6,189.3,176.6,189.3,176.6c1.7,0.1,3.5,0.1,5.2,0c0.4,0,0.9-0.3,1.1-0.7c1.9-3.1,3.7-6.3,5.5-9.5c0.2-0.3,0.2-0.8,0-1.1
		c-1.8-3.2-3.6-6.4-5.5-9.5c-0.2-0.3-0.7-0.6-1.1-0.6c-3.5-0.1-7-0.1-10.5-0.1c-0.4,0-0.9,0.3-1.1,0.7c-1.9,3.1-3.7,6.3-5.5,9.4
		c-0.3,0.5-0.3,0.9,0,1.4c1.8,3.1,3.6,6.2,5.3,9.3c0.3,0.6,0.7,0.7,1.3,0.7C185.8,176.5,187.5,176.6,189.3,176.6z M189.4,199
		C189.4,199,189.4,199,189.4,199c1.8,0,3.6,0.1,5.4,0c0.4,0,0.9-0.3,1.2-0.7c1.8-3.1,3.6-6.1,5.4-9.2c0.2-0.3,0.2-0.9,0-1.2
		c-1.8-3.2-3.7-6.4-5.5-9.7c-0.3-0.5-0.6-0.7-1.2-0.7c-3.5,0-7,0-10.5,0c-0.4,0-0.9,0.3-1.1,0.6c-1.9,3.2-3.7,6.3-5.5,9.5
		c-0.2,0.3-0.2,0.9,0,1.2c1.8,3.1,3.6,6.3,5.3,9.4c0.3,0.6,0.7,0.7,1.3,0.7C185.9,198.9,187.7,199,189.4,199z M170.3,99.5
		C170.3,99.5,170.3,99.5,170.3,99.5c-1.8,0-3.6,0-5.4,0c-0.4,0-0.9,0.3-1.1,0.6c-1.9,3.1-3.7,6.2-5.4,9.3c-0.2,0.3-0.2,0.9,0,1.2
		c1.8,3.2,3.6,6.4,5.5,9.6c0.2,0.3,0.7,0.6,1,0.6c3.5,0,7.1,0,10.6,0c0.4,0,0.9-0.3,1.1-0.7c1.9-3.1,3.7-6.3,5.5-9.4
		c0.2-0.3,0.2-1,0-1.3c-1.7-3.1-3.5-6.2-5.3-9.3c-0.3-0.5-0.7-0.7-1.3-0.7C173.8,99.5,172.1,99.5,170.3,99.5z M93.8,121.1
		C93.8,121.1,93.8,121.1,93.8,121.1c1.7,0,3.4,0,5.1,0.1c0.7,0,1-0.2,1.4-0.7c1.8-3.2,3.7-6.3,5.4-9.4c0.2-0.3,0.2-0.9,0-1.2
		c-1.8-3.2-3.6-6.3-5.4-9.5c-0.2-0.3-0.7-0.6-1.1-0.6c-3.5-0.1-7-0.1-10.5-0.1c-0.6,0-1,0.2-1.3,0.7c-1.8,3.1-3.6,6.2-5.4,9.3
		c-0.3,0.5-0.3,0.9,0,1.4c1.8,3.1,3.6,6.2,5.3,9.3c0.3,0.6,0.7,0.8,1.3,0.8C90.5,121.1,92.1,121.1,93.8,121.1z M94.2,188.7
		C94.2,188.7,94.2,188.7,94.2,188.7c-1.7,0-3.5,0-5.2,0c-0.6,0-1,0.2-1.3,0.7c-1.8,3.1-3.6,6.2-5.4,9.3c-0.3,0.5-0.3,0.9,0,1.5
		c1.8,3.1,3.5,6.2,5.3,9.3c0.2,0.3,0.7,0.7,1.1,0.7c3.5,0.1,7,0.1,10.5,0c0.4,0,1-0.3,1.2-0.6c1.9-3.1,3.7-6.3,5.6-9.5
		c0.2-0.3,0.2-0.9,0-1.2c-1.7-3.1-3.5-6.3-5.4-9.4c-0.2-0.3-0.7-0.6-1.1-0.7C97.7,188.6,95.9,188.7,94.2,188.7z M74.9,154.4
		C74.9,154.4,74.9,154.4,74.9,154.4c1.8,0,3.6,0.1,5.4,0c0.4,0,0.9-0.3,1.1-0.6c1.9-3.1,3.7-6.3,5.5-9.4c0.2-0.3,0.2-1,0-1.3
		c-1.8-3.2-3.6-6.3-5.4-9.5c-0.2-0.3-0.7-0.6-1.1-0.6c-3.5,0-7-0.1-10.5,0c-0.4,0-0.9,0.3-1.1,0.6c-1.9,3.1-3.7,6.3-5.5,9.5
		c-0.2,0.3-0.2,1,0,1.3c1.7,3.1,3.5,6.1,5.2,9.2c0.3,0.5,0.6,0.8,1.2,0.7C71.4,154.4,73.1,154.4,74.9,154.4z M151.1,198.9
		C151.1,198.9,151.1,198.9,151.1,198.9c1.8,0,3.6,0,5.4,0c0.6,0,0.9-0.2,1.2-0.7c1.8-3.2,3.7-6.3,5.5-9.4c0.2-0.3,0.2-1,0-1.3
		c-1.7-3.1-3.5-6.3-5.4-9.4c-0.2-0.3-0.8-0.6-1.1-0.6c-3.5-0.1-6.9-0.1-10.4,0c-0.4,0-1,0.3-1.2,0.7c-1.9,3.1-3.7,6.3-5.5,9.4
		c-0.2,0.3-0.2,1,0,1.3c1.7,3.1,3.5,6.3,5.4,9.4c0.2,0.3,0.7,0.6,1.1,0.6C147.6,199,149.4,198.9,151.1,198.9z M113,154.4
		C113,154.4,113,154.5,113,154.4c1.7,0.1,3.4,0,5.1,0.1c0.6,0,1-0.1,1.3-0.7c1.8-3.2,3.7-6.3,5.5-9.5c0.2-0.3,0.2-0.9,0-1.2
		c-1.7-3.1-3.5-6.2-5.3-9.3c-0.3-0.6-0.7-0.8-1.4-0.8c-3.4,0-6.9,0-10.3,0c-0.7,0-1,0.2-1.3,0.8c-1.8,3.1-3.6,6.2-5.4,9.3
		c-0.3,0.5-0.3,0.9,0,1.4c1.8,3.1,3.5,6.2,5.4,9.3c0.2,0.3,0.7,0.7,1.1,0.7C109.5,154.5,111.2,154.4,113,154.4z M56,122
		C56,122,56,122,56,122c-1.8-0.1-3.5,0-5.3-0.1c-0.6,0-1,0.1-1.3,0.7c-1.8,3.1-3.6,6.2-5.4,9.4c-0.2,0.3-0.2,1,0,1.3
		c1.8,3.2,3.6,6.3,5.4,9.5c0.2,0.3,0.6,0.6,1,0.6c3.6,0,7.1,0.1,10.7,0c0.3,0,0.8-0.3,1-0.6c1.9-3.2,3.8-6.4,5.6-9.6
		c0.2-0.3,0.2-0.9,0-1.2c-1.7-3.1-3.5-6.2-5.3-9.3c-0.3-0.6-0.7-0.7-1.3-0.7C59.4,122,57.7,122,56,122z M112.9,132.1
		C112.9,132.1,112.9,132.1,112.9,132.1c1.8,0,3.6,0.1,5.4,0c0.4,0,0.9-0.3,1.1-0.6c1.9-3.1,3.7-6.3,5.5-9.4c0.2-0.3,0.2-0.9,0-1.2
		c-1.8-3.2-3.6-6.3-5.4-9.5c-0.2-0.3-0.7-0.6-1-0.6c-3.5-0.1-7.1-0.1-10.6,0c-0.4,0-0.9,0.3-1.1,0.6c-1.9,3.2-3.8,6.4-5.6,9.6
		c-0.2,0.3-0.2,0.8,0,1.1c1.8,3.2,3.6,6.3,5.4,9.5c0.2,0.3,0.7,0.6,1.1,0.6C109.4,132.1,111.2,132.1,112.9,132.1z M93.9,98.6
		C93.9,98.6,93.9,98.6,93.9,98.6c1.7,0,3.5,0,5.2,0c0.6,0,0.9-0.2,1.2-0.7c1.8-3.2,3.7-6.3,5.5-9.4c0.2-0.3,0.2-0.9,0-1.2
		c-1.8-3.2-3.6-6.3-5.4-9.5c-0.2-0.3-0.7-0.6-1.1-0.7c-3.5-0.1-7-0.1-10.5,0c-0.4,0-0.9,0.3-1.1,0.6c-1.9,3.2-3.8,6.4-5.6,9.6
		c-0.2,0.3-0.2,0.8,0,1.1c1.8,3.2,3.6,6.3,5.4,9.5c0.2,0.3,0.7,0.6,1.1,0.6C90.4,98.7,92.1,98.6,93.9,98.6z M132.3,166.5
		C132.3,166.4,132.3,166.4,132.3,166.5c-1.7,0-3.4,0-5.1-0.1c-0.6,0-1,0.2-1.3,0.7c-1.8,3.2-3.7,6.3-5.5,9.4c-0.2,0.3-0.2,1,0,1.3
		c1.7,3.1,3.5,6.2,5.3,9.3c0.2,0.3,0.7,0.7,1.1,0.7c3.5,0.1,7,0.1,10.5,0.1c0.4,0,0.9-0.3,1.1-0.6c1.9-3.1,3.7-6.3,5.5-9.4
		c0.2-0.3,0.2-1,0-1.3c-1.7-3.1-3.5-6.3-5.4-9.4c-0.2-0.3-0.8-0.6-1.2-0.7C135.8,166.4,134,166.5,132.3,166.5z M132.1,165.5
		C132.1,165.5,132.1,165.5,132.1,165.5c1.7,0,3.4,0.1,5.1,0c0.4,0,1-0.3,1.2-0.6c1.9-3.1,3.7-6.3,5.5-9.5c0.2-0.3,0.2-0.9,0-1.2
		c-1.8-3.1-3.5-6.3-5.4-9.4c-0.2-0.3-0.7-0.7-1.1-0.7c-3.5-0.1-7-0.1-10.5-0.1c-0.4,0-0.9,0.3-1.1,0.7c-1.9,3.1-3.6,6.2-5.5,9.3
		c-0.3,0.6-0.3,1,0,1.6c1.8,3,3.5,6.1,5.3,9.2c0.3,0.6,0.7,0.8,1.4,0.7C128.7,165.5,130.4,165.5,132.1,165.5z M170.2,165.5
		C170.2,165.5,170.2,165.5,170.2,165.5c1.7,0,3.4,0,5.1,0c0.7,0,1-0.2,1.3-0.8c1.8-3.1,3.6-6.2,5.4-9.2c0.3-0.5,0.3-0.9,0-1.4
		c-1.8-3.1-3.6-6.2-5.3-9.3c-0.3-0.5-0.6-0.8-1.2-0.8c-3.5,0-6.9,0-10.4,0c-0.6,0-1,0.1-1.3,0.7c-1.8,3.2-3.7,6.3-5.4,9.4
		c-0.2,0.3-0.2,0.9,0,1.2c1.8,3.2,3.6,6.3,5.4,9.5c0.2,0.3,0.7,0.6,1.1,0.6C166.7,165.6,168.4,165.5,170.2,165.5z M151.3,110.7
		C151.3,110.7,151.3,110.7,151.3,110.7c-1.8,0-3.6,0-5.3,0c-0.4,0-0.9,0.3-1.1,0.6c-1.9,3.2-3.8,6.4-5.6,9.6c-0.2,0.3-0.2,0.8,0,1.1
		c1.8,3.2,3.6,6.4,5.5,9.5c0.2,0.3,0.6,0.6,1,0.6c3.5,0.1,7,0.1,10.5,0c0.4,0,0.9-0.3,1.1-0.7c1.9-3.2,3.7-6.4,5.6-9.6
		c0.3-0.5,0.3-0.9,0-1.3c-1.8-3-3.5-6.1-5.3-9.2c-0.3-0.5-0.7-0.7-1.3-0.7C154.7,110.7,153,110.7,151.3,110.7z M170.1,143.1
		C170.1,143.1,170.1,143.1,170.1,143.1c1.7,0.1,3.4,0.1,5.1,0c0.4,0,1-0.3,1.2-0.7c1.9-3.1,3.6-6.2,5.5-9.3c0.3-0.5,0.3-0.9,0-1.5
		c-1.8-3.1-3.5-6.2-5.4-9.3c-0.2-0.3-0.7-0.6-1.1-0.7c-3.5-0.1-6.9-0.1-10.4-0.1c-0.4,0-0.9,0.3-1.1,0.7c-1.9,3.1-3.7,6.3-5.6,9.5
		c-0.3,0.5-0.3,0.8,0,1.3c1.8,3,3.5,6.1,5.3,9.2c0.3,0.5,0.6,0.8,1.3,0.7C166.6,143.1,168.4,143.1,170.1,143.1z"/>
</g>
</svg>
