<?xml version="1.0" encoding="utf-8"?>
<!-- Generator: Adobe Illustrator 19.2.0, SVG Export Plug-In . SVG Version: 6.00 Build 0)  -->
<svg version="1.1" id="_x31_" xmlns="http://www.w3.org/2000/svg" xmlns:xlink="http://www.w3.org/1999/xlink" x="0px" y="0px"
	 viewBox="0 0 595.3 256.8" style="enable-background:new 0 0 595.3 256.8;" xml:space="preserve">
<style type="text/css">
	.st0{display:none;}
	.st1{display:inline;fill:#FFFFFF;}
	.st2{fill:#2A8BBA;}
	.st3{fill:#81C9DF;}
	.st4{fill:#50A8CA;}
	.st5{fill:#0E4552;}
	.st6{fill:#1D76A7;}
	.st7{fill:#51A9CB;}
	.st8{fill:#61B6D1;}
	.st9{fill:#49AACE;}
	.st10{fill:#1B6A8E;}
	.st11{fill:#309CC1;}
	.st12{fill:#1A5471;}
	.st13{fill:#96D3E5;}
	.st14{fill:#81C9E0;}
	.st15{fill:#82CAE0;}
	.st16{fill:#33A5CB;}
	.st17{fill:#0F4552;}
	.st18{fill:#1F77A8;}
	.st19{fill:#6FB7D2;}
	.st20{fill:#2C96C3;}
	.st21{fill:#309CC2;}
	.st22{fill:#1C76A7;}
</style>
<g class="st0">
	<path class="st1" d="M136.5,195.7L136.5,195.7c5.5,0,10.5,0.9,15,2.7s8.5,4.5,12,8.1s6.1,7.9,7.9,12.9c1.7,4.9,2.6,10.5,2.6,16.8
		c0,5-0.4,9.5-1.1,13.5c-0.8,4-1.9,7.5-3.5,10.5s-3.5,5.6-5.7,7.9c-2.3,2.3-4.9,4.3-7.9,5.9c-2.9,1.6-6,2.8-9.2,3.7
		c-3.2,0.8-6.6,1.2-10,1.2l0,0v-14l0,0c3,0,5.7-0.6,8.2-1.7s4.7-2.8,6.7-5.1c2-2.3,3.5-5.1,4.5-8.6c1-3.6,1.5-7.8,1.5-12.7
		c0-4.6-0.5-8.5-1.5-12c-1-3.4-2.5-6.2-4.5-8.4c-2-2.3-4.2-3.9-6.7-5.1c-2.5-1.1-5.2-1.7-8.1-1.7l0,0v-13.9H136.5z M99,237.3
		c0-7.3,1-13.6,3.1-19.1s5.2-10.1,9.4-13.6c3.4-3,7.3-5.2,11.5-6.7s8.7-2.2,13.7-2.2v14.1c-3,0-5.7,0.6-8.2,1.7
		c-2.5,1.1-4.7,2.8-6.7,5s-3.5,5.1-4.5,8.5c-1,3.5-1.5,7.6-1.5,12.4c0,4.8,0.5,8.9,1.5,12.4c1,3.4,2.5,6.3,4.5,8.5
		c2,2.3,4.2,3.9,6.7,5.1c2.5,1.1,5.2,1.7,8.2,1.7v14c-5.6,0-10.6-0.9-15.1-2.7c-4.6-1.8-8.6-4.5-12.1-8.1s-6.1-8-7.8-13.2
		C99.8,249.8,99,244,99,237.3z"/>
	<path class="st1" d="M592.3,276.8c-2.3,0.5-4.6,0.9-6.9,1.2c-1.7,0.2-3.3,0.3-4.8,0.3c-2.4,0-4.6-0.2-6.6-0.6s-3.7-1-5.2-1.9
		c-1.4-0.8-2.7-1.8-3.7-2.9s-1.9-2.4-2.5-3.8l0,0c-0.6-1.4-1-3.4-1.3-6.2c-0.3-2.6-0.4-5.9-0.4-9.9v-42.5h-9.6v-13.4h9.6v-18.2
		l16.3-9.8v28h13c0,4.5,0,8.9,0,13.4h-13v43.2c0,1.8,0.1,3.3,0.2,4.4c0.1,1,0.2,1.7,0.4,2.1l0,0c0.2,0.4,0.4,0.7,0.6,1
		c0.3,0.3,0.6,0.6,0.9,0.8c0.3,0.2,0.8,0.4,1.4,0.5l0,0c0.6,0.1,1.3,0.2,2.2,0.2c0.7,0,1.5,0,2.3-0.1c1.6-0.1,3.1-0.4,4.7-0.6
		L592.3,276.8z"/>
	<path class="st1" d="M545.7,251.2c-1.3,4.7-2.5,8.6-5.2,12.7c-2.1,3.2-4.6,5.9-7.6,8.2c-3,2.3-6.4,4-10.3,5.1
		c-3.8,1.1-8,1.7-12.6,1.7c-0.4,0-0.7,0-1,0v-14c0.3,0,0.7,0,1,0c2.2,0,4.3-0.3,6.1-0.9s3.5-1.4,5-2.6c1.5-1.1,2.9-2.6,4.1-4.5
		c1.7-2.6,2.7-5.2,3.7-8L545.7,251.2L545.7,251.2z M509,195.7h0.3c5.3,0,10.2,0.9,14.6,2.7c4.4,1.8,8.3,4.6,11.7,8.2
		c3.4,3.7,6,8.1,7.7,13.2c1.7,5.1,2.5,10.8,2.5,17.3c0,1.7-0.1,3.4-0.1,5.1H509v-14h19.5c-0.3-2.3-0.8-4.4-1.4-6.2
		c-0.8-2.2-1.7-4.1-3-5.5c-1.9-2.3-4.1-4-6.5-5.2c-2.4-1.1-5.2-1.7-8.2-1.7H509L509,195.7L509,195.7z M509,278.9
		c-5.4-0.1-10.2-1-14.6-2.7c-4.7-1.8-8.7-4.5-12.2-8.2c-3.4-3.6-6-8-7.7-13c-1.7-5-2.5-10.7-2.5-17.1c0-6.6,0.9-12.5,2.6-17.6
		c1.7-5.2,4.3-9.7,7.8-13.4s7.5-6.5,12-8.4c4.4-1.8,9.3-2.8,14.7-2.8v14c-2.6,0-5,0.5-7.2,1.4c-2.3,0.9-4.4,2.3-6.2,4.1
		c-1.9,1.8-3.3,4-4.3,6.4l0,0c-0.8,2-1.4,4.3-1.7,6.7H509v14h-20.3c0.3,3.3,1,6.3,1.9,8.9c1.1,3,2.6,5.5,4.6,7.6s4.2,3.6,6.6,4.6
		c2.2,0.9,4.5,1.4,7.1,1.5L509,278.9L509,278.9z"/>
	<path class="st1" d="M393.7,197.4c5,0,10,0,15,0v7.7c2.3-2.5,4.9-4.5,7.9-6c4.3-2.2,9.2-3.3,14.8-3.3c2.4,0,4.7,0.2,7,0.7
		c2.2,0.4,4.4,1.1,6.4,2s3.9,1.9,5.4,3.1c1.6,1.2,2.9,2.5,4,4c1,1.4,1.9,3,2.7,4.8c0.7,1.7,1.3,3.5,1.7,5.4c0.3,1.3,0.4,3,0.6,5.2
		c0.1,2.2,0.2,4.8,0.2,7.8v48.7c-5.4,0-10.9,0-16.3,0v-48.2c0-2.6-0.1-4.9-0.4-6.7c-0.2-1.8-0.6-3.4-1-4.5s-1-2.1-1.8-3
		s-1.7-1.7-2.9-2.4c-1.1-0.7-2.4-1.2-3.7-1.6c-1.4-0.4-2.8-0.5-4.4-0.5c-2.6,0-4.9,0.4-7.1,1.2s-4.2,2-6.1,3.6
		c-1.8,1.5-3.1,3.8-4,6.8c-1,3.2-1.4,7.1-1.4,11.9v43.5c-5.4,0-10.9,0-16.3,0v-80.2H393.7z"/>
	<path class="st1" d="M359.3,259.2c6,0,12.1,0,18.1,0v18.1c-6,0-12.1,0-18.1,0V259.2z"/>
	<path class="st1" d="M347.8,276.8l-1.6,0.3c-1.9,0.4-3.7,0.7-5.3,0.9c-1.7,0.2-3.3,0.3-4.8,0.3c-2.4,0-4.6-0.2-6.6-0.6
		s-3.7-1-5.2-1.9l0,0c-1.4-0.8-2.7-1.8-3.7-2.9s-1.9-2.4-2.5-3.8l0,0c-0.6-1.4-1-3.4-1.3-6.2c-0.3-2.6-0.4-5.9-0.4-9.9v-42.5h-9.6
		v-13.4h9.6v-18.2l16.3-9.8v28h13v13.4h-13v43.2c0,1.8,0.1,3.3,0.2,4.4c0.1,1,0.2,1.7,0.4,2.1l0,0c0.2,0.4,0.4,0.7,0.6,1
		c0.3,0.3,0.6,0.5,0.9,0.8l0,0c0.4,0.2,0.8,0.4,1.4,0.5s1.3,0.2,2.2,0.2c0.7,0,1.5,0,2.3-0.1c0.9-0.1,1.9-0.2,3.1-0.4l1.6-0.2
		L347.8,276.8z"/>
	<path class="st1" d="M281,197.4c5.4,0,10.9,0,16.3,0v80c-5.4,0-10.9,0-16.3,0V197.4z"/>
	<path class="st1" d="M281,168.3c5.4,0,10.9,0,16.3,0c0,6,0,12.1,0,18.1c-5.4,0-10.9,0-16.3,0C281,180.3,281,174.3,281,168.3z"/>
	<path class="st1" d="M222.3,168.3h2.2c4.1,0,7.8,0.3,11.2,0.8c3.4,0.6,6.4,1.4,8.9,2.5c5.2,2.3,9.3,5.8,12.2,10.5l0,0
		c1.5,2.3,2.6,4.8,3.3,7.2l0,0c0.7,2.5,1.1,5,1.1,7.6c0,2.4-0.3,4.7-1,7s-1.6,4.5-2.9,6.6c-1.3,2.1-2.9,4.1-4.9,5.8
		c-1.1,0.9-2.3,1.8-3.5,2.6c1.9,0.8,3.7,1.7,5.4,2.8c2.6,1.7,4.9,3.8,6.7,6.2l0,0c1.8,2.4,3.2,5,4.1,7.9c0.9,2.8,1.4,5.9,1.4,9.1
		c0,2.6-0.3,5.1-0.8,7.5c-0.6,2.4-1.4,4.8-2.5,7s-2.3,4.2-3.7,6c-1.4,1.7-2.9,3.2-4.6,4.5l0,0c-1.6,1.2-3.5,2.3-5.5,3.2
		c-2,0.9-4.2,1.7-6.6,2.3l0,0c-2.4,0.6-5.1,1.1-8,1.4s-6.1,0.5-9.5,0.5h-2.8v-15.8h2.9c4.4,0,7.5-0.2,9.2-0.5l0,0
		c1.5-0.3,2.9-0.6,4.2-1.1l0,0c1.2-0.4,2.3-1,3.3-1.6s1.8-1.3,2.6-2.2l0,0c0.8-0.9,1.5-1.9,2.2-3.1c0.6-1.1,1.1-2.4,1.4-3.8
		c0.3-1.4,0.5-2.8,0.5-4.4c0-1.8-0.2-3.5-0.7-5.1c-0.5-1.5-1.1-3-2.1-4.3l0,0c-0.9-1.3-2-2.4-3.2-3.3l0,0c-1.3-0.9-2.7-1.6-4.3-2.2
		l0,0c-1.7-0.6-3.8-1-6.2-1.3c-2.5-0.3-5.4-0.4-8.7-0.4h-1v-15.8c2.8,0,5.2-0.1,7.2-0.3c2.1-0.2,3.8-0.5,5-0.9l0,0
		c1.6-0.5,3-1.1,4.2-1.9c1.2-0.8,2.2-1.7,2.9-2.8c0.8-1.1,1.4-2.3,1.8-3.6c0.4-1.4,0.6-2.9,0.6-4.6c0-1.6-0.2-3.1-0.6-4.5
		c-0.4-1.4-0.9-2.7-1.7-3.8l0,0c-0.7-1.2-1.6-2.2-2.7-2.9c-1-0.8-2.3-1.4-3.6-1.8c-1.5-0.5-3.5-0.8-6-1c-2-0.2-4.4-0.3-7.2-0.3
		v-15.7H222.3z M183.2,168.3h39.2V184c-0.8,0-1.5,0-2.3,0h-19.5v28.7h21.2h0.6v15.8h-21.8v33.1h21.8v15.8h-39.2V168.3z"/>
	<path class="st1" d="M45.7,231.4L3.5,168.3h20.9c10.4,15.9,21.4,31.6,30.8,48.1c9.8-16.4,20.7-32.1,31.2-48.1h20.4l-43.7,63.1v45.9
		c-5.8,0-11.6,0-17.4,0C45.7,277.3,45.7,231.4,45.7,231.4z"/>
</g>
<g>
	<path class="st2" d="M519.1,220.8c-0.2-0.3-0.5-0.5-0.7-0.8c-0.3-0.7-0.7-1.4-1-2l-0.1,0.2c-3.3-7.9-6.3-15.8-9.7-23.7
		c-7.9-18.1-15.9-36.1-23.9-54.1c-5.1-11.4-10.1-22.8-15.3-34.2c-0.2-0.4-1.1-0.5-1.7-0.8c-1,1-2.4,1.8-3.1,3.1
		c-4.9,8.1-9.7,16.4-14.6,24.4c-3.9,6.3-8.1,12.6-12.1,18.9c-3.8-6.1-7.7-12.2-11.4-18.3c-6.2-9.9-12.4-19.8-18.6-29.8
		c0-0.3,0-0.6,0.1-0.9c0.9,0,1.7-0.1,2.7-0.1c19.6,0,39.3,0.1,59,0.1c6,1.6,12.1,3.5,18.1,4.9c10.9,2.7,21.9,5.2,32.8,7.8
		c0.1,0.2,0.1,0.5,0.1,0.7c0,19.5-0.2,39-0.1,58.5c0.1,13.7,0.6,27.4,0.8,41.2C520.2,217.5,519.4,219.2,519.1,220.8z"/>
	<path class="st3" d="M409.5,102.6c-0.9,0-1.7,0.1-2.7,0.1c1.3-5.7,2.7-11.3,4-17.1c2.6-10.9,5.2-21.9,7.8-32.8
		c12.4,1.3,24.6,2.7,37,4.1c10.8,1.2,21.7,2.9,32.5,4c1.3,0.1,3.4-1,4.3-2.2c2.1-2.7,3.8-5.7,5.7-8.6c1,1,2.2,1.9,3.2,3.1
		c7.6,9.4,15.1,18.8,23.6,29.3c1.2-17,2.4-32.9,3.5-48.7c5.9-0.7,11.9-1.5,17.7-2.1c7.8-0.7,15.5-1.3,23.2-1.9
		c-3,3.6-5.9,7.2-8.8,10.7c-4.1,5.1-8.1,10.2-12.2,15.4l0,0c-0.3,0.3-0.6,0.6-0.9,0.9c-7.4,8.8-14.6,17.5-22,26.3
		c-0.3,0.3-0.5,0.6-0.8,1c-5.4,1.6-10.9,3.3-16.4,5c-13.3,4.3-26.6,8.8-39.8,13.1c0.1-0.9-0.2-1.9,0.2-2.6
		c4.9-8.3,9.8-16.6,14.7-24.8c2-3.5,3.9-7.2,6.4-11.9c-4.8,2.1-8.2,3.7-11.5,5.3c-21,10.1-41.8,20.2-62.6,30.5
		C413.4,99.5,411.5,101.3,409.5,102.6z"/>
	<path class="st4" d="M209.5,216.6c11.3,7.2,14.3,20.4,6.7,30.7c-4.5,6-11.2,8.3-18.2,8.7c-10.7,0.6-21.5,0.2-32.1,0.2
		c-1.3,0-2.7,0-4.4,0c0-25.4,0-50.5,0-76.9c13.9,0.8,27.4,0.9,40.8,2.5c8.7,1,14,7.4,15.4,16.1C219.1,205.7,216.1,212.1,209.5,216.6
		z M180.4,238.3c6.1,0,11.7,0.3,17.2-0.1c3.4-0.2,5.2-3,5.2-6.3c-0.1-3.7-2.2-6.1-5.7-6.4c-5.5-0.4-11-0.1-16.7-0.1
		C180.4,230,180.4,234.1,180.4,238.3z M180.4,208.9c5.2,0,10.1,0.2,15-0.1c3.2-0.2,4.7-2.4,4.7-5.5s-1.6-5.2-4.8-5.3
		c-4.9-0.2-9.8,0-14.9,0C180.4,201.8,180.4,205.2,180.4,208.9z"/>
	<path class="st5" d="M41.5,227.2c-8,0-15.1,0-22.6,0c0,9.8,0,19.4,0,29.4c-6.3,0-12.5,0-18.9,0c0-25.2,0-50.7,0-76.4
		c6,0,12.1,0,18.6,0c0,9.4,0,18.8,0,28.5c7.8,0,15,0,22.6,0c0-9.4,0-18.8,0-28.4c6.3,0,12.5,0,18.9,0c0,25.2,0,50.7,0,76.4
		c-6,0-12.1,0-18.6,0C41.5,247,41.5,237.2,41.5,227.2z"/>
	<path class="st6" d="M443.2,254.3c-1.8-2.2-3.9-4.4-5.3-6.8c-16.4-28.8-32.5-57.7-48.7-86.6c-1.8-3.3-3.4-6.6-5.1-9.9h0.3
		c4.6,0.3,9.2,0.7,13.8,0.8c12.9,0.4,25.8,0.6,38.6,1c0.3,2.9,0.6,5.6,0.8,8.5c0.9,14.2,1.8,28.4,2.7,42.7
		C441.3,220.6,442.2,237.5,443.2,254.3z"/>
	<path class="st7" d="M364.1,192.3c-3.9,3.5-7.8,6.9-11.5,10.4c-15.7-8-26.4-7.4-32.9,1.6c-6.5,9-5.9,21.6,1.4,29
		c7.8,8,19.3,8.1,31.3-0.2c3.8,3.6,7.7,7.3,11.5,11c-12.9,15.7-38.9,17-54.6,2.8c-16.8-15.3-17.1-41.1-0.5-57
		C324.5,175.1,350,176,364.1,192.3z"/>
	<path class="st4" d="M287,180.8c0,5.4,0,10.8,0,16.9c-6.1,0-12.3,0-19.1,0c0,19.5,0,38.5,0,57.4c-0.2,0.3-0.5,0.5-0.7,0.8
		c-5.8,0-11.7,0-18.1,0c0-19.3,0-38.4,0-57.9c-6.4,0-12.5,0-18.8,0c0-6,0-11.7,0-17.9c18.6,0,37.3,0,55.9,0
		C286.5,180.3,286.8,180.6,287,180.8z"/>
	<path class="st8" d="M418.6,52.9c-2.6,10.9-5.2,21.9-7.8,32.8c-1.3,5.7-2.7,11.3-4,17.1c0,0.3-0.1,0.6-0.1,0.9c-0.3,0-0.6,0-0.8,0
		c-2.2,0-4.6-0.2-6.7,0.1c-22.3,3-44.5,5.9-66.7,9c-3.6,0.5-7.2,1.6-10.7,2.5c0.5-0.9,0.6-2.4,1.4-2.9c9.6-6.1,19.4-12.2,29.1-18.3
		C374.3,80.4,396.5,66.6,418.6,52.9z"/>
	<path class="st9" d="M321.6,115.3c3.6-0.8,7.2-1.9,10.7-2.5c22.2-3.1,44.5-6.1,66.7-9c2.2-0.3,4.5-0.1,6.7-0.1
		c-3.8,8.3-7.7,16.6-11.4,24.8c-3.4,7.5-6.7,14.9-10.1,22.4H384C363.2,139,342.5,127.1,321.6,115.3z"/>
	<path class="st10" d="M466.6,105.5c0.6,0.3,1.5,0.4,1.7,0.8c5.1,11.3,10.2,22.8,15.3,34.2c8,18,16,36,23.9,54.1
		c3.4,7.8,6.4,15.7,9.7,23.7c-5.5-5.4-11.1-10.7-16.6-16.2c-12.1-12.3-23.9-24.6-35.9-36.9c0-0.2,0-0.4,0-0.6
		C465.4,144.8,466,125.2,466.6,105.5z"/>
	<path class="st5" d="M138.6,256.8c-6.4,0-12.1,0-18.2,0c0-12.6,0-25,0-37.7c-2.6-0.1-4.7-0.2-7.2-0.4c0-5.6,0-11.1,0-17.1
		c2.2,0,4.4,0,7.1,0c0-6.2,0-12,0-18c6.1,0,11.8,0,17.9,0c0,5.7,0,11.5,0,17.7c2.2,0.2,4.1,0.3,6.3,0.4c0,5.5,0,10.9,0,16.9
		c-1.7,0.1-3.7,0.3-5.9,0.4C138.6,231.5,138.6,243.9,138.6,256.8z"/>
	<path class="st11" d="M519.1,220.8c0.4-1.7,1.1-3.4,1.1-5.1c-0.2-13.7-0.7-27.4-0.8-41.2c-0.1-19.5,0-38.9,0.1-58.5
		c0.3,0.1,0.6,0.1,0.9,0.2c0.9,1.8,1.7,3.6,2.7,5.4c-0.1,0.6-0.5,1.4-0.3,1.9c3.4,8.8,6.9,17.6,10.3,26.4
		c5.1,13.3,10.2,26.6,15.3,39.9c-5.1,5.9-10.3,11.8-15.4,17.7c-3.1,3.7-5.9,7.7-8.9,11.5l-0.1-0.2c-0.3,0.3-0.6,0.6-1,0.9l0.1-0.1
		c-0.3,0.3-0.7,0.6-1,0.9C521,220.7,520,220.8,519.1,220.8z"/>
	<path class="st12" d="M464.8,164.5c0,0.2,0,0.4,0,0.6c-3.3,13.6-6.6,27.3-9.9,40.9c-3.9,16-7.8,32.2-11.8,48.2
		c-0.9-16.8-1.8-33.6-2.9-50.4c-0.8-14.2-1.7-28.4-2.7-42.7c-0.2-2.9-0.5-5.6-0.8-8.5l0,0C446.1,156.7,455.5,160.7,464.8,164.5z"/>
	<path class="st5" d="M81.6,204.9c5.9,5.4,11.8,3.8,17.7,0.5c0,17.7,0,34.3,0,51.3c-5.8,0-11.7,0-17.7,0
		C81.6,240.1,81.6,223.4,81.6,204.9z"/>
	<path class="st8" d="M528.3,33.6c-1.1,15.8-2.2,31.8-3.5,48.7c-8.4-10.4-15.9-19.9-23.6-29.3c-0.9-1.1-2.1-2-3.2-3.1
		c3.8-2.2,7.6-4.7,11.4-6.8C515.7,40,522,36.8,528.3,33.6z"/>
	<path class="st8" d="M548.3,189.9c-5.1-13.3-10.2-26.6-15.3-39.9c-3.4-8.8-6.9-17.6-10.3-26.4c-0.2-0.5,0.2-1.2,0.3-1.9
		c2.5,3.1,4.8,6,7.3,9.1c0.5,1.5,0.7,3.3,1.5,4.6c6.4,10.6,12.8,21.3,19.4,31.8c3.3,5.2,7.1,10.2,10.5,15.3c0.4,1.2,0.8,2.6,1.2,4.1
		c-4.4,1.3-8.6,2.7-12.8,4C549.5,190.4,548.9,190.1,548.3,189.9z"/>
	<path class="st13" d="M520.3,116.4c-0.3-0.1-0.6-0.1-0.9-0.2c0-0.2,0-0.5-0.1-0.7c1.7-10.5,3.6-21.2,5.3-31.7
		c0.3-0.3,0.5-0.6,0.8-1c5.2,9,10.4,18,15.6,26.9c3.3,5.5,6.6,11,10.6,17.8C540.4,123.6,530.4,120,520.3,116.4z"/>
	<path class="st14" d="M561.7,182.6c-3.6-5.1-7.3-10.1-10.5-15.3c-6.6-10.5-13-21.2-19.4-31.8c-0.8-1.3-1-3.1-1.5-4.6
		c5.1-0.1,10.3-0.2,15.4-0.1c1.2,0,3.2,1.1,3.4,2C553.3,149.4,557.5,166.1,561.7,182.6z"/>
	<path class="st15" d="M570.8,29.1c6-7.6,12-15,18-22.6c1.8-2.4,3.8-4.6,6.5-6.5c-1.3,7.9-2.5,15.6-3.9,23.5
		c-0.5,2.9-1.5,5.6-2.2,8.5C583,31.1,576.9,30.1,570.8,29.1z"/>
	<path class="st16" d="M570.8,29.1c6.1,1,12.3,1.9,18.3,3c-13.6,7.9-27.2,15.7-40.8,23.6c4.1-5.1,8.1-10.3,12.2-15.4
		c2.9-3.6,5.8-7.2,8.8-10.7C569.8,29.4,570.3,29.3,570.8,29.1z"/>
	<path class="st17" d="M89.4,180.8c6.6,0,10,3,10,8.6c0,5.7-3.4,8.6-10,8.6c-6.5,0-10-3-10-8.6C79.4,183.8,82.9,180.8,89.4,180.8z"
		/>
	<path class="st18" d="M548.3,189.9c0.6,0.2,1.2,0.5,1.8,0.7c3.3,1.8,6.5,3.7,10.4,5.8c-8.1,5.1-15.5,10-23.1,14.7
		c-4.4,2.8-9,5.3-13.4,8c3-3.9,5.7-7.9,8.9-11.5C538,201.6,543.2,195.8,548.3,189.9z"/>
	<path class="st10" d="M517.3,218c0.3,0.7,0.7,1.4,1,2C517.9,219.4,517.6,218.7,517.3,218z"/>
	<path class="st16" d="M547.5,56.6c0.3-0.3,0.6-0.6,0.9-0.9C548.1,56,547.8,56.3,547.5,56.6z"/>
	<path class="st19" d="M287,180.8c-0.3-0.2-0.5-0.5-0.8-0.7C286.5,180.3,286.8,180.6,287,180.8z"/>
	<path class="st18" d="M522.9,219.9c0.3-0.3,0.6-0.6,1-0.9C523.6,219.2,523.3,219.6,522.9,219.9z"/>
	<path class="st18" d="M522,220.7c0.3-0.3,0.7-0.6,1-0.9C522.6,220.1,522.3,220.4,522,220.7z"/>
	<path class="st19" d="M267.1,255.9c0.2-0.3,0.5-0.5,0.7-0.8C267.7,255.4,267.3,255.7,267.1,255.9z"/>
	<path class="st20" d="M384.4,150.8c3.4-7.5,6.6-14.9,10.1-22.4c3.8-8.3,7.7-16.6,11.4-24.8c0.3,0,0.6,0,0.8,0
		c6.2,9.9,12.4,19.8,18.6,29.8c3.8,6.1,7.7,12.2,11.4,18.3c0,0.3,0,0.6,0,0.9l0,0c-12.9-0.3-25.8-0.6-38.6-1
		C393.6,151.6,389,151.1,384.4,150.8z"/>
	<path class="st8" d="M409.5,102.6c2-1.4,3.9-3.1,6.1-4.2c20.8-10.2,41.8-20.3,62.6-30.5c3.4-1.6,6.8-3.2,11.5-5.3
		c-2.6,4.7-4.4,8.4-6.4,11.9c-4.9,8.3-9.8,16.6-14.7,24.8c-0.4,0.7-0.2,1.7-0.2,2.6c0,0.3,0,0.6-0.1,0.8
		C448.9,102.7,429.1,102.7,409.5,102.6z"/>
	<path class="st21" d="M468.5,102.8c0-0.3,0-0.6,0.1-0.8c13.3-4.4,26.6-8.8,39.8-13.1c5.4-1.7,10.8-3.4,16.4-5
		c-1.7,10.5-3.6,21.2-5.3,31.7c-10.9-2.6-21.9-5.1-32.8-7.8C480.5,106.2,474.5,104.4,468.5,102.8z"/>
	<path class="st22" d="M436.8,152.7c0-0.3,0-0.6,0-0.9c4.1-6.3,8.2-12.6,12.1-18.9c5-8.1,9.7-16.2,14.6-24.4c0.7-1.2,2-2,3.1-3.1
		c-0.6,19.7-1.2,39.4-1.7,59.1C455.5,160.7,446.1,156.7,436.8,152.7z"/>
</g>
</svg>
