<?xml version="1.0" encoding="utf-8"?>
<!-- Generator: Adobe Illustrator 19.2.0, SVG Export Plug-In . SVG Version: 6.00 Build 0)  -->
<svg version="1.1" id="_x31_" xmlns="http://www.w3.org/2000/svg" xmlns:xlink="http://www.w3.org/1999/xlink" x="0px" y="0px"
	 viewBox="0 0 595.3 146.3" style="enable-background:new 0 0 595.3 146.3;" xml:space="preserve">
<style type="text/css">
	.st0{display:none;}
	.st1{display:inline;fill:#FFFFFF;}
	.st2{fill:#FFFFFF;}
</style>
<g class="st0">
	<path class="st1" d="M136.5,195.7L136.5,195.7c5.5,0,10.5,0.9,15,2.7s8.5,4.5,12,8.1s6.1,7.9,7.9,12.9c1.7,4.9,2.6,10.5,2.6,16.8
		c0,5-0.4,9.5-1.1,13.5c-0.8,4-1.9,7.5-3.5,10.5s-3.5,5.6-5.7,7.9c-2.3,2.3-4.9,4.3-7.9,5.9c-2.9,1.6-6,2.8-9.2,3.7
		c-3.2,0.8-6.6,1.2-10,1.2l0,0v-14l0,0c3,0,5.7-0.6,8.2-1.7s4.7-2.8,6.7-5.1c2-2.3,3.5-5.1,4.5-8.6c1-3.6,1.5-7.8,1.5-12.7
		c0-4.6-0.5-8.5-1.5-12c-1-3.4-2.5-6.2-4.5-8.4c-2-2.3-4.2-3.9-6.7-5.1c-2.5-1.1-5.2-1.7-8.1-1.7l0,0v-13.9H136.5z M99,237.3
		c0-7.3,1-13.6,3.1-19.1s5.2-10.1,9.4-13.6c3.4-3,7.3-5.2,11.5-6.7s8.7-2.2,13.7-2.2v14.1c-3,0-5.7,0.6-8.2,1.7
		c-2.5,1.1-4.7,2.8-6.7,5s-3.5,5.1-4.5,8.5c-1,3.5-1.5,7.6-1.5,12.4c0,4.8,0.5,8.9,1.5,12.4c1,3.4,2.5,6.3,4.5,8.5
		c2,2.3,4.2,3.9,6.7,5.1c2.5,1.1,5.2,1.7,8.2,1.7v14c-5.6,0-10.6-0.9-15.1-2.7c-4.6-1.8-8.6-4.5-12.1-8.1s-6.1-8-7.8-13.2
		C99.8,249.8,99,244,99,237.3z"/>
	<path class="st1" d="M592.3,276.8c-2.3,0.5-4.6,0.9-6.9,1.2c-1.7,0.2-3.3,0.3-4.8,0.3c-2.4,0-4.6-0.2-6.6-0.6s-3.7-1-5.2-1.9
		c-1.4-0.8-2.7-1.8-3.7-2.9s-1.9-2.4-2.5-3.8l0,0c-0.6-1.4-1-3.4-1.3-6.2c-0.3-2.6-0.4-5.9-0.4-9.9v-42.5h-9.6v-13.4h9.6v-18.2
		l16.3-9.8v28h13c0,4.5,0,8.9,0,13.4h-13v43.2c0,1.8,0.1,3.3,0.2,4.4c0.1,1,0.2,1.7,0.4,2.1l0,0c0.2,0.4,0.4,0.7,0.6,1
		c0.3,0.3,0.6,0.6,0.9,0.8c0.3,0.2,0.8,0.4,1.4,0.5l0,0c0.6,0.1,1.3,0.2,2.2,0.2c0.7,0,1.5,0,2.3-0.1c1.6-0.1,3.1-0.4,4.7-0.6
		L592.3,276.8z"/>
	<path class="st1" d="M545.7,251.2c-1.3,4.7-2.5,8.6-5.2,12.7c-2.1,3.2-4.6,5.9-7.6,8.2c-3,2.3-6.4,4-10.3,5.1
		c-3.8,1.1-8,1.7-12.6,1.7c-0.4,0-0.7,0-1,0v-14c0.3,0,0.7,0,1,0c2.2,0,4.3-0.3,6.1-0.9s3.5-1.4,5-2.6c1.5-1.1,2.9-2.6,4.1-4.5
		c1.7-2.6,2.7-5.2,3.7-8L545.7,251.2L545.7,251.2z M509,195.7h0.3c5.3,0,10.2,0.9,14.6,2.7c4.4,1.8,8.3,4.6,11.7,8.2
		c3.4,3.7,6,8.1,7.7,13.2c1.7,5.1,2.5,10.8,2.5,17.3c0,1.7-0.1,3.4-0.1,5.1H509v-14h19.5c-0.3-2.3-0.8-4.4-1.4-6.2
		c-0.8-2.2-1.7-4.1-3-5.5c-1.9-2.3-4.1-4-6.5-5.2c-2.4-1.1-5.2-1.7-8.2-1.7H509L509,195.7L509,195.7z M509,278.9
		c-5.4-0.1-10.2-1-14.6-2.7c-4.7-1.8-8.7-4.5-12.2-8.2c-3.4-3.6-6-8-7.7-13c-1.7-5-2.5-10.7-2.5-17.1c0-6.6,0.9-12.5,2.6-17.6
		c1.7-5.2,4.3-9.7,7.8-13.4s7.5-6.5,12-8.4c4.4-1.8,9.3-2.8,14.7-2.8v14c-2.6,0-5,0.5-7.2,1.4c-2.3,0.9-4.4,2.3-6.2,4.1
		c-1.9,1.8-3.3,4-4.3,6.4l0,0c-0.8,2-1.4,4.3-1.7,6.7H509v14h-20.3c0.3,3.3,1,6.3,1.9,8.9c1.1,3,2.6,5.5,4.6,7.6s4.2,3.6,6.6,4.6
		c2.2,0.9,4.5,1.4,7.1,1.5L509,278.9L509,278.9z"/>
	<path class="st1" d="M393.7,197.4c5,0,10,0,15,0v7.7c2.3-2.5,4.9-4.5,7.9-6c4.3-2.2,9.2-3.3,14.8-3.3c2.4,0,4.7,0.2,7,0.7
		c2.2,0.4,4.4,1.1,6.4,2s3.9,1.9,5.4,3.1c1.6,1.2,2.9,2.5,4,4c1,1.4,1.9,3,2.7,4.8c0.7,1.7,1.3,3.5,1.7,5.4c0.3,1.3,0.4,3,0.6,5.2
		c0.1,2.2,0.2,4.8,0.2,7.8v48.7c-5.4,0-10.9,0-16.3,0v-48.2c0-2.6-0.1-4.9-0.4-6.7c-0.2-1.8-0.6-3.4-1-4.5s-1-2.1-1.8-3
		s-1.7-1.7-2.9-2.4c-1.1-0.7-2.4-1.2-3.7-1.6c-1.4-0.4-2.8-0.5-4.4-0.5c-2.6,0-4.9,0.4-7.1,1.2s-4.2,2-6.1,3.6
		c-1.8,1.5-3.1,3.8-4,6.8c-1,3.2-1.4,7.1-1.4,11.9v43.5c-5.4,0-10.9,0-16.3,0v-80.2H393.7z"/>
	<path class="st1" d="M359.3,259.2c6,0,12.1,0,18.1,0v18.1c-6,0-12.1,0-18.1,0V259.2z"/>
	<path class="st1" d="M347.8,276.8l-1.6,0.3c-1.9,0.4-3.7,0.7-5.3,0.9c-1.7,0.2-3.3,0.3-4.8,0.3c-2.4,0-4.6-0.2-6.6-0.6
		s-3.7-1-5.2-1.9l0,0c-1.4-0.8-2.7-1.8-3.7-2.9s-1.9-2.4-2.5-3.8l0,0c-0.6-1.4-1-3.4-1.3-6.2c-0.3-2.6-0.4-5.9-0.4-9.9v-42.5h-9.6
		v-13.4h9.6v-18.2l16.3-9.8v28h13v13.4h-13v43.2c0,1.8,0.1,3.3,0.2,4.4c0.1,1,0.2,1.7,0.4,2.1l0,0c0.2,0.4,0.4,0.7,0.6,1
		c0.3,0.3,0.6,0.5,0.9,0.8l0,0c0.4,0.2,0.8,0.4,1.4,0.5s1.3,0.2,2.2,0.2c0.7,0,1.5,0,2.3-0.1c0.9-0.1,1.9-0.2,3.1-0.4l1.6-0.2
		L347.8,276.8z"/>
	<path class="st1" d="M281,197.4c5.4,0,10.9,0,16.3,0v80c-5.4,0-10.9,0-16.3,0V197.4z"/>
	<path class="st1" d="M281,168.3c5.4,0,10.9,0,16.3,0c0,6,0,12.1,0,18.1c-5.4,0-10.9,0-16.3,0C281,180.3,281,174.3,281,168.3z"/>
	<path class="st1" d="M222.3,168.3h2.2c4.1,0,7.8,0.3,11.2,0.8c3.4,0.6,6.4,1.4,8.9,2.5c5.2,2.3,9.3,5.8,12.2,10.5l0,0
		c1.5,2.3,2.6,4.8,3.3,7.2l0,0c0.7,2.5,1.1,5,1.1,7.6c0,2.4-0.3,4.7-1,7s-1.6,4.5-2.9,6.6c-1.3,2.1-2.9,4.1-4.9,5.8
		c-1.1,0.9-2.3,1.8-3.5,2.6c1.9,0.8,3.7,1.7,5.4,2.8c2.6,1.7,4.9,3.8,6.7,6.2l0,0c1.8,2.4,3.2,5,4.1,7.9c0.9,2.8,1.4,5.9,1.4,9.1
		c0,2.6-0.3,5.1-0.8,7.5c-0.6,2.4-1.4,4.8-2.5,7s-2.3,4.2-3.7,6c-1.4,1.7-2.9,3.2-4.6,4.5l0,0c-1.6,1.2-3.5,2.3-5.5,3.2
		c-2,0.9-4.2,1.7-6.6,2.3l0,0c-2.4,0.6-5.1,1.1-8,1.4s-6.1,0.5-9.5,0.5h-2.8v-15.8h2.9c4.4,0,7.5-0.2,9.2-0.5l0,0
		c1.5-0.3,2.9-0.6,4.2-1.1l0,0c1.2-0.4,2.3-1,3.3-1.6s1.8-1.3,2.6-2.2l0,0c0.8-0.9,1.5-1.9,2.2-3.1c0.6-1.1,1.1-2.4,1.4-3.8
		c0.3-1.4,0.5-2.8,0.5-4.4c0-1.8-0.2-3.5-0.7-5.1c-0.5-1.5-1.1-3-2.1-4.3l0,0c-0.9-1.3-2-2.4-3.2-3.3l0,0c-1.3-0.9-2.7-1.6-4.3-2.2
		l0,0c-1.7-0.6-3.8-1-6.2-1.3c-2.5-0.3-5.4-0.4-8.7-0.4h-1v-15.8c2.8,0,5.2-0.1,7.2-0.3c2.1-0.2,3.8-0.5,5-0.9l0,0
		c1.6-0.5,3-1.1,4.2-1.9c1.2-0.8,2.2-1.7,2.9-2.8c0.8-1.1,1.4-2.3,1.8-3.6c0.4-1.4,0.6-2.9,0.6-4.6c0-1.6-0.2-3.1-0.6-4.5
		c-0.4-1.4-0.9-2.7-1.7-3.8l0,0c-0.7-1.2-1.6-2.2-2.7-2.9c-1-0.8-2.3-1.4-3.6-1.8c-1.5-0.5-3.5-0.8-6-1c-2-0.2-4.4-0.3-7.2-0.3
		v-15.7H222.3z M183.2,168.3h39.2V184c-0.8,0-1.5,0-2.3,0h-19.5v28.7h21.2h0.6v15.8h-21.8v33.1h21.8v15.8h-39.2V168.3z"/>
	<path class="st1" d="M45.7,231.4L3.5,168.3h20.9c10.4,15.9,21.4,31.6,30.8,48.1c9.8-16.4,20.7-32.1,31.2-48.1h20.4l-43.7,63.1v45.9
		c-5.8,0-11.6,0-17.4,0C45.7,277.3,45.7,231.4,45.7,231.4z"/>
</g>
<image style="display:none;overflow:visible;enable-background:new    ;" width="938" height="510" xlink:href="C21BD6BF21D45F32.png"  transform="matrix(1 0 0 1 -81.7244 531.96)">
</image>
<path class="st2" d="M145.4,73.8c0,2.6,0,4.4,0,6.3c0,1.2,0,2.1-0.8,3.3c-0.6,1-0.3,2.6-0.5,3.9c-0.4,2.5-0.8,5-1.9,7.4v0.1
	c-0.4,1.7-0.9,3.5-1.5,5.3c-0.4,1.2-1.1,2.3-1.7,3.4c-0.4,0.9-1,1.7-1.4,2.6c-0.5,1.1-0.9,2.1-1.4,3.1c-0.8,1.4-1.7,2.8-2.6,4.2
	c-0.2,0.4-0.5,0.9-0.9,1.3c-0.4,0.6-0.8,1.3-1.3,1.8c-1.3,1.4-2.6,2.7-3.5,4.4c-0.9,1.5-2.6,2.6-3.9,3.9c-0.9,0.9-1.8,1.5-2.5,2.5
	c-1,1.6-2.8,2-4.1,3.2c-1.1,1-2,1.9-3.1,2.9c-0.1,0.1-0.2,0.3-0.4,0.3c-0.9,0.4-1.7,0.8-2.5,1.3c-1.4,1-2.9,1.7-4.4,2.4
	c-1.6,0.6-3.1,1.4-4.6,2.4c-1.7,1.1-3.4,1.8-5.4,2.1c-1.8,0.3-3.5,1.3-5.3,1.8c-0.3,0.1-0.8,0.1-1.1,0.2c-1.3,0.3-2.7,0.8-4,1
	c-1.3,0.2-2.6,0.2-3.8,0.3c-4.4,0.2-8.7,1.6-13.2,1c-2-0.3-4.2-0.6-6.2-1c-0.9-0.1-1.6,0-2.5-0.1s-1.7-0.4-2.7-0.8
	c-0.1,0-0.2-0.1-0.2-0.1c-1.9-0.2-3.8-0.6-5.6-1.3c-1.7-0.6-3.6-0.6-5.3-1.4c-2-0.8-3.9-2-5.8-3c-1.2-0.5-2.5-1-3.5-1.6
	c-1.4-0.8-2.7-1.7-4.1-2.7c-0.2-0.1-0.3-0.4-0.4-0.4c-1.3,0.2-1.8-1.1-2.7-1.5c-1.1-0.6-2.1-1.4-3-2.1c-1.4-1.3-2.8-2.7-4.2-4
	c-1.8-1.7-3.6-3.3-5.3-5.2c-1.1-1.1-1.8-2.5-2.7-3.8c-0.8-1-1.6-1.9-2.4-2.9c-0.3-0.4-0.5-1-0.9-1.4c-1-1.5-2-3-3-4.5
	c0-0.1-0.2-0.1-0.2-0.2c-0.4-1.1-0.9-2.1-1.3-3.3c-0.6-1.5-1.3-3-2-4.4c-0.4-1-1-1.9-1.2-2.9c-0.5-1.8-0.9-3.8-1.4-5.7
	c-0.1-0.5-0.4-1-0.6-1.5c-0.1-0.3-0.3-0.8-0.3-1.1c-0.1-1-0.1-2-0.1-3c0-0.3,0.1-0.8-0.1-1c-1.5-1.6-0.8-3.5-1-5.3
	c-0.1-0.9,0.1-1.8-0.9-2.5c-0.1-0.1-0.2-0.4-0.2-0.6c0-2-0.5-4.4,0.1-6.2c0.9-2.3,0.2-4.7,1.1-6.7c1-2.3,0.5-4.6,1.1-6.8
	c0.3-1.6,1.2-3.1,1.8-4.7c0-0.1,0.1-0.1,0.1-0.2c0.5-1.8,1-3.6,1.5-5.4c0.4-1.2,1.1-2.1,1.7-3.2c0.1-0.1,0.2-0.2,0.3-0.4
	c0.4-1.2,0.9-2.4,1.3-3.5c0.4-0.9,1-1.7,1.5-2.6c0.6-1.1,1.3-2,2-3c1.3-1.8,2.1-3.9,4-5.3c0.6-0.5,1-1.6,1.5-2.3
	c1.4-1.5,2.9-3,4.4-4.5c1.3-1.4,2.6-2.8,4-4.1c0.6-0.6,1.6-1,2.4-1.5c1.8-1.4,3.6-2.8,5.6-4.1c1-0.6,2.3-1.1,3.3-1.6
	c1.1-0.5,2.1-1.2,3.2-1.8c0.8-0.4,1.5-0.9,2.4-1.3C44.6,7.3,45.8,7,47,6.5c1.8-0.9,4-0.9,5.7-2.1c0.5-0.4,1.5-0.1,2.3-0.2
	c0.8-0.2,1.4-0.5,2.1-0.8c0.3-0.1,0.8-0.2,1.2-0.2c1.6-0.1,3.2,0,4.8-0.9C64,1.7,65.5,2.2,66.5,2c1-0.1,1.8-0.5,2.8-0.8
	c0.2-0.1,0.5-0.2,0.8-0.2c2,0,4.4-0.5,6.2,0.1c2.5,1.1,4.9,0.3,7.2,1.1c1.9,0.6,4,0.3,5.6,1.1s3.2,0.6,4.8,1.1
	c1.5,0.3,2.8,1.3,4.2,1.9c0.2,0.1,0.3,0.1,0.5,0.1c1.5,0.4,2.9,0.9,4.3,1.5c1.1,0.4,1.9,1.3,3,1.8s2.3,0.9,3.3,1.4
	c0.5,0.3,1,0.8,1.5,1.2c1.4,1,2.8,2,4.2,3c0.8,0.5,1.5,0.9,2.1,1.4c1.1,0.9,2.1,1.7,3.1,2.7c1.8,1.7,3.6,3.4,5.4,5.3
	c1.6,1.6,3.2,3.3,4.7,5c1.2,1.4,2.4,2.8,3.3,4.3c1,1.5,1.7,3.2,2.7,4.8c0.6,1.1,1.4,1.9,1.9,3s0.9,2.3,1.4,3.4
	c0.6,1.5,1.3,3,1.9,4.5c0,0.1,0.1,0.2,0.2,0.3c0.4,2,0.8,4.1,1.4,6c0.9,2.7,0.4,5.8,1.4,8.3C145.9,68.1,144.9,71.2,145.4,73.8z
	 M57.1,106.8c0,0.2-0.1,0.3-0.1,0.5c0.9,0.5,1.7,1.2,2.6,1.7c0.9,0.5,1.8,0.9,2.7,1.4c1.1,0.6,2.1,1.5,3.3,1.8
	c1.5,0.4,2.7,1.8,4.4,1.3c0.1,0,0.3,0.1,0.3,0.1c0.5,1.1,1.6,0.9,2.5,0.9c9,0,18,0,26.9,0c2.8,0,2.8,0,2.8-2.8c0-21.9,0-43.9,0-65.8
	c0-1-0.1-1.8,1.3-1.8c1.7,0,1.8,0,1.8,1.8c0,21.8,0,43.5,0,65.3c0,2.5,0.9,3.3,3.2,3.3c0.9,0,1.7,0.1,2.6,0c0.4-0.1,1-0.4,1.4-0.6
	c1.2-0.5,1-1.6,1-2.6c0-19.1,0-38.2,0-57.2c0-5.2,0-10.3,0-15.6c0-2.3-0.4-2.6-2.7-2.6c-2.8,0-5.6,0-8.3,0c-1.8,0-3.6,0-5.5,0
	c-0.6,0-1.5,0.2-1.7,0.5c-0.5,1.3-1.2,2.6-1.2,3.9c-0.1,21,0,42.1,0,63.1c0,3,0,3-2.9,3c-10.7,0-21.5,0-32.2,0
	C58.7,106.6,57.9,106.7,57.1,106.8z M90.5,53.8c-0.1-0.2-0.4-0.6-0.3-1.2c0.1-1.4-0.6-1.8-1.8-1.8c-4.8,0-9.7,0-14.5,0
	c-1.9,0-2.1,0.3-2.1,2.4c0,3.4,0,6.9,0,10.4c0,10.7,0,21.5,0,32.2c0,1.7-0.1,1.8-1.8,1.8c-1.2,0-2.3,0-3.4,0c-9,0-18,0-26.9,0
	c-0.6,0-1.6-0.3-1.7,1c-0.1,1.2,0.4,1.4,1.4,1.4c0.2,0,0.4,0.1,0.6,0.2c1.3,0.6,2.5,1.4,3.8,1.9s2.8,0.8,3.8,1.5
	c0.9,0.6,1.9,0.5,2.5,1.1c1.2,1.3,2.5,0.9,3.8,0.9c7.6,0,15.1,0,22.8,0c2.7,0,3.3-0.6,3.3-3.3c0-13.4,0-26.8,0-40.3
	c0-0.8,0-1.5,0-2.1c0-0.3,0.2-0.8,0.4-0.9c1.3-0.8,2.7,0.1,2.7,1.6c0,13.7,0,27.5,0,41.2c0,3.6,0,3.8,3.6,3.8c3.8,0,3.6,0.5,3.6-3.5
	c0-15.3,0-30.7,0-46C90.1,55.3,90.3,54.6,90.5,53.8z M32.9,89.4L32.9,89.4c-3.3,0-6.8,0-10.1,0c-1,0-1.9,0-2.9,0.1
	c-0.9,0.1-1.1,0.9-0.5,1.2c1.3,0.9,2.7,1.7,4.1,2.4c1.4,0.6,2.9,1,4.3,1.5c1.1,0.4,2,0.9,3,1.3c0.6,0.2,1.3,0.8,1.9,0.8
	c6.9,0.1,13.7,0.1,20.6,0.1c0.4,0,1-0.1,1.1-0.3c0.8-1,1.4-1.9,1.4-3.4c-0.1-6.2,0-12.3-0.1-18.6c0-1.2,0.3-1.6,1.6-1.7
	c1.4,0,1.6,0.6,1.6,1.7c0,0.5,0,1.2,0,1.8c0,5.9,0,11.7,0,17.6c0,1.3,1.2,2.8,2.3,2.9c1.2,0.1,2.4,0,3.5,0c0.3,0,1-0.2,1-0.4
	c0.4-1.4,0.9-2.9,1.1-4.4c0.2-1,0-2,0-3.1c0-6.8,0-13.4,0-20.2c0-1.8-0.9-2.8-2.7-2.8c-4.5,0-9,0-13.5,0c-2.4,0-3,0.8-3,3.1
	c0,5.9,0,11.9,0,17.8c0,1.9-1,2.8-2.9,2.8C41,89.4,37,89.4,32.9,89.4z M51.8,12.2c-1.6,0-2.9,1.2-2.9,2.8s1.2,2.9,2.8,2.9
	c1.4,0,3-1.5,3-2.8S53.2,12.2,51.8,12.2z M124.1,114.1c0-1.1-1.7-2.8-2.9-2.8c-0.6,0-2.9,2.3-2.9,3.1c0,1.3,1.5,2.6,3,2.7
	C122.8,117,124.1,115.7,124.1,114.1z M19,45.4c1.6,0,2.8-1.2,2.8-2.7c0-1.1-1.9-3-2.9-3c-0.6,0-2.8,2.5-2.8,3.1
	C16,44.2,17.4,45.4,19,45.4z M135.9,76.8c1.8-0.6,3.5-1.3,2.9-3.6c-0.2-0.9-1.8-1.7-2.9-1.9c-1.5-0.2-2.4,1-2.7,1.8
	C132.5,75.4,134.6,75.9,135.9,76.8z M73.2,139.4c0.6-0.3,1.3-0.5,1.6-1c0.5-0.8,1.3-1.6,1.3-2.4c0-1.4-1.5-2.4-3-2.4
	c-0.9,0-1.2,0.6-1.8,1c-1.2,0.8-0.9,1.8-0.6,2.8c0.1,0.4,0.9,0.8,1.4,1.1C72.4,138.9,72.9,139.2,73.2,139.4z M14.5,49.8
	c-1.5-0.3-3.8,2-3,3s1.7,1.8,2.7,2.5c0.2,0.1,0.9-0.4,1.4-0.8c0.3-0.1,0.6-0.2,0.9-0.3c0.3-0.2,0.6-0.5,0.8-0.9
	C17.8,51.9,16,49.6,14.5,49.8z M137.7,63.1c0-1.2-1.6-2.9-2.9-3c-0.4,0-3,2.4-2.8,2.8c0.3,0.9,0.8,1.7,1.3,2.5
	c0.2,0.3,1,0.3,1.5,0.3C136.5,65.8,137.7,64.7,137.7,63.1z M18.8,102.3c-1.2,1.1-3.1,1.6-2.7,3.8c0.2,1,1.7,1.8,2.9,1.9
	c1.5,0.1,2.4-1,2.7-1.9C22.3,103.8,20.3,103.3,18.8,102.3z M38.7,19.7c0.4,0.4,0.8,0.6,1,1.1c1.2,2.3,2,2.4,4,1
	c1.2-0.9,1.1-1.9,0.8-2.8c-0.2-0.8-1.1-1.4-1.7-1.9c-0.3-0.2-1.2-0.1-1.6,0.2C40.2,17.9,39.5,18.8,38.7,19.7z M59,135.6
	c0.9,0.8,1.7,1.4,2.3,2.1c0.5,0.8,1.3,1.1,1.9,0.6c0.8-0.5,1.4-1.4,1.7-2.3c0.4-1.1-0.1-2-1.1-2.8c-0.9-0.8-1.7-0.9-2.6-0.1
	C60.6,134.1,59.9,134.7,59,135.6z M97.8,15.5c-0.4-0.8-0.5-1.4-1-1.8c-0.5-0.5-1.2-1.1-1.8-1.3c-1.2-0.3-2.7,1-2.8,2.1
	c-0.1,1.1-0.1,2,1.1,2.8c1.1,0.9,1.7,1,2.7,0.1C96.4,16.8,97.1,16.1,97.8,15.5z M134.8,87.5c1.6,0,2.8-1.1,2.9-2.6
	c0-1.7-0.9-2.5-2.8-2.6c-1.2,0-3,1.6-3,2.7C131.9,86.2,133.4,87.5,134.8,87.5z M28.2,114c-1-1.4-1.6-3.2-3.6-2.7
	c-1.1,0.3-2,1.3-1.8,2.8c0.1,1.1,1,2.6,1.8,2.7C26.8,117.3,27.3,115.4,28.2,114z M94.8,130.3c-2,0-2.8,0.6-2.7,2.5
	c0,1.4,1.2,2.5,2.7,2.5c1.6,0,3.1-1.2,3.1-2.5C97.8,131.5,96.3,130.3,94.8,130.3z M110.3,121.9c0.8,0.8,1.5,1.4,2,2.1
	c0.5,0.9,1.4,1.2,1.9,0.6c0.8-0.6,2-0.9,1.9-2.3c-0.1-1.1,0-1.9-1.1-2.7c-1.2-0.9-1.7-1.1-2.7,0
	C111.7,120.4,111.1,121.1,110.3,121.9z M39.3,127.3c0.3,2.3,0.9,4.2,3.4,3.2c0.8-0.3,1.5-1.3,1.8-2.1c0.2-0.9,0.3-2-1-2.5
	C41.8,125.3,40.6,125.7,39.3,127.3z M11.1,76.8c2.5-2,2.5-2,1.7-4.3c-0.4-1.3-1.6-1.3-2.5-1.1c-0.9,0.2-1.9,1-2.3,1.8
	C7.3,75.5,9.1,76.2,11.1,76.8z M135.2,52.7c-1.1-1.4-1.6-3.4-3.9-2.8c-1,0.3-1.8,1.1-1.8,2.5c0,1.3,0.6,2.7,1.8,2.9
	C133.4,55.8,134.1,53.9,135.2,52.7z M86.6,135.4c0-1.4-1.2-2.7-2.5-2.7c-1.3,0-2.4,1.3-2.4,2.8s1.2,3,2.4,3
	C85.5,138.6,86.6,137.2,86.6,135.4z M129.9,42.7c0-1.5-1.1-3.1-2.3-3.1c-1.1-0.1-2.6,1.5-2.6,2.8c0,1.7,1,2.9,2.5,2.9
	C129.3,45.4,129.9,44.9,129.9,42.7z M127.9,102.3c-0.6,0.2-1.4,0.4-2,0.9c-0.3,0.2-0.8,0.5-0.8,0.9c-0.2,1.2-0.1,2.3,1,3.3
	c0.9,0.9,1.6,0.5,2.5,0.4c0.9,0,1.2-0.5,1.3-1.3C130.1,104.7,130,103.1,127.9,102.3z M51.9,130.3c-1.5,0-2.9,1.2-3,2.5
	c0,1.2,1.4,2.5,2.6,2.5c1.7,0,3.2-1.1,3.2-2.5C54.7,131.5,53.3,130.3,51.9,130.3z M35.5,26c0-2.1-0.3-2.6-2.5-2.6
	c-2,0-2.4,0.3-2.4,2.4c0,2.4,0.2,2.6,2.1,2.6C35.1,28.5,35.5,28.1,35.5,26z M84,14.8c2.1,0,2.7-0.4,2.7-2.5c0-1.9-0.5-2.5-2.5-2.5
	c-1.9,0-2.5,0.5-2.5,2.5C81.8,14.5,82.1,14.8,84,14.8z M14.4,97.7c1.6,0,2.9-1.1,2.8-2.5c0-1.3-1.3-2.4-2.9-2.4c-1.7,0-3,1.1-3,2.5
	C11.5,96.7,12.8,97.7,14.4,97.7z M73.3,8.8c-1.5,0-2.8,1.1-2.8,2.5s1.2,2.5,2.8,2.5s2.9-1.1,3-2.4C76.3,10,75,8.8,73.3,8.8z
	 M35.5,122.1c0-1.7-1-3-2.4-3c-1.3,0-2.4,1.2-2.5,2.7c0,1.7,1,3.1,2.3,3.1C34.2,124.8,35.4,123.6,35.5,122.1z M102.2,19.8
	c0,1.5,1.2,2.9,2.5,2.9c1.3,0,2.5-1.4,2.5-2.7c0-1.6-1.1-3-2.5-3C103.4,16.9,102.2,18.3,102.2,19.8z M132.1,97.7
	c1.3,0,2.9-1.2,3-2.3s-1.6-2.6-2.8-2.6c-1.7,0-2.8,0.9-2.8,2.5C129.6,97.2,130.1,97.7,132.1,97.7z M104.7,130.6
	c1.9,0,2.5-0.5,2.5-2.6c0-1.8-0.5-2.4-2.5-2.4c-1.9,0-2.5,0.5-2.5,2.5C102.2,130.1,102.7,130.6,104.7,130.6z M9.1,62.9
	c0,1.6,1,2.8,2.4,2.9c1.4,0,2.5-1.2,2.5-2.8c0-1.5-1.2-2.9-2.5-3C10.2,60,9.1,61.4,9.1,62.9z M121.4,31.6c-1.6,0-3,1-3,2.1
	c0,1.3,1.4,2.6,2.9,2.6c1.6,0,2.8-1.1,2.9-2.5C124.1,32.5,122.9,31.6,121.4,31.6z M111.3,26c0,2.4,0.1,2.5,2.1,2.5
	c2.3,0,2.7-0.4,2.7-2.4c0-1.9-0.6-2.6-2.6-2.6C111.6,23.5,111.3,23.7,111.3,26z M60.1,12.2c0,2.3,0.2,2.6,2.1,2.6
	c1.6,0,2.8-1.1,2.9-2.5c0-1.8-0.8-2.5-2.7-2.5C60.4,9.9,60.1,10.2,60.1,12.2z M9.1,84.7c0,1.6,1.1,2.8,2.5,2.8
	c1.7,0,2.4-0.6,2.4-2.7s-0.2-2.3-2.4-2.3C9.3,82.6,9.1,82.7,9.1,84.7z M25.3,31.6c-2.5,0-2.6,0.1-2.6,2.1c0,1.6,1,2.7,2.5,2.7
	c1.8,0,2.4-0.6,2.4-2.7S27.5,31.6,25.3,31.6z"/>
<path class="st2" d="M219.5,80.3c0-16,0-32.1,0-48.1c0-2.5,1.1-4.4,2.6-6.1c0.6-0.8,1.5-1.4,2.3-2c0.2-0.2,0.6-0.1,1.1-0.2
	c0.8-0.2,1.5-0.5,2.3-0.9c0.4-0.1,0.8-0.2,1.2-0.2c19.9,0,39.6,0,59.5,0c0.5,0,1.2,0.3,1.7,0.4c0.6,0.2,1.4,0.4,2.1,0.4
	c1.4,0.1,2.7,0,4.1,0.1c0.5,0,1.1,0.4,1.6,0.6c0.1,0.1,0.3,0.2,0.4,0.2c1.3,0.2,2.6,0.2,3.9,1.1c1.2,0.9,2.8,1,4.2,1.5
	c0.9,0.3,1.7,0.8,2.5,1.2c1.4,0.8,2.9,1.4,4.2,2.3c1,0.6,1.8,1.5,2.8,2.4c1.3,1.1,2.6,2.1,3.9,3.2c1.2,1.2,2.6,2,3.2,3.8
	c0.4,1.2,1.6,2,2.5,3.1c0.2,0.2,0.4,0.4,0.5,0.8c0.5,1.2,1.2,2.4,1.7,3.4c0.6,1.4,1.3,2.7,1.9,4.1c0.6,1.4,1.3,2.8,1.9,4.3
	c0.2,0.4,0.1,0.9,0.2,1.3c0.3,1.1,0.6,2.1,0.9,3.1c0.1,0.4,0.2,0.9,0.2,1.3c0,11.5,0,23.1,0.1,34.6c0,1,0,1.9-0.1,2.9
	c0,0.8,0,1.5-0.8,2.1c-0.4,0.4-0.2,1.5-0.4,2.1c-0.2,0.8-0.5,1.4-0.8,2.1c-0.1,0.2-0.1,0.5-0.2,0.8c-0.3,0.6-0.5,1.3-0.9,1.9
	c-0.1,0.1-0.2,0.2-0.1,0.3c0.3,1.7-1.3,2.7-1.5,4.1c-0.1,0.8-0.9,1.4-1.3,2c-0.6,1.1-1.3,2.3-1.9,3.3c-0.4,0.6-0.9,1.4-1.4,1.9
	c-0.9,1-1.8,1.7-2.8,2.6c-1.5,1.4-3,3-4.5,4.3c-1.6,1.4-3.4,2.5-5.3,3.4c-1.6,0.9-3.2,1.6-4.7,2.5c-0.9,0.5-1.7,0.6-2.7,1
	c-1.6,0.5-3.1,1.3-4.6,1.8c-0.1,0-0.2,0.1-0.3,0.2c-2.8,0.4-5.6,1.1-8.5,1.2c-20.5,0.1-41,0-61.5,0.1c-1.9,0-3.3-1-4.9-1.7
	c-1-0.4-1.7-1.2-2.6-1.7c-0.1,0-0.2-0.1-0.2-0.2c-0.4-1.3-1.3-2.6-1.3-3.9C219.5,113.3,219.5,96.7,219.5,80.3L219.5,80.3z
	 M238.8,80.2c0,11.5,0,23,0,34.5c0,2.1,0.2,2.4,2.4,2.4c15.8,0,31.7,0,47.4,0c2.1,0,4.3,0.1,6.4-1c1.8-0.9,4-1.3,5.7-2.5
	c0.8-0.5,1.6-0.9,2.5-1.3c0.1-0.1,0.2-0.2,0.2-0.3c1-1,2.1-1.8,2.9-2.9c1.1-1.3,2.7-2.1,2.9-4c0-0.1,0.2-0.3,0.2-0.4
	c0.6-1.1,1.4-1.9,1.8-3.1c0.6-1.8,1.8-3.5,1.4-5.6c0-0.1,0.1-0.3,0.1-0.5c0.3-1,0.8-1.9,0.9-2.9c0.1-5.9,0.2-11.9,0-17.8
	c-0.1-3.2,0.9-6.5-0.9-9.8c-0.6-1.3,0.1-3.1-1.2-4.5c-0.6-0.8-0.8-2-1.2-3c-0.9-1.7-1.5-3.5-2.8-4.8c-1.7-1.9-3.9-3.4-5.9-4.9
	c-0.8-0.5-1.7-0.8-2.5-1.3c-1.2-0.6-2.1-1.5-3.4-1.9c-1.5-0.5-3.1-1-4.7-1.2c-1.4-0.2-2.9-0.2-4.4-0.2c-15,0-29.9,0-45,0
	c-2.5,0-3,0.5-3,3C238.8,57.3,238.8,68.8,238.8,80.2z"/>
<path class="st2" d="M595.3,22.9c-1.3,1.4-2.3,2.7-3.4,3.9c-1,1.1-2,1.9-2.9,3c-0.6,0.8-1,1.6-1.6,2.4c-0.9,1.1-1.9,1.9-2.8,3
	c-1,1.3-2.5,2-3,3.8c-0.1,0.5-0.8,1-1.2,1.4c-1.3,1.3-2.7,2.6-4,4c-0.6,0.8-1.1,1.7-1.7,2.5c-0.4,0.5-0.8,1.1-1.3,1.5
	c-1,1-2,1.7-2.9,2.8c-1,1.2-1.7,2.5-2.7,3.6c-0.9,1.1-1.7,2-2.6,3c-1,1-1.9,1.9-2.8,2.9c-1.2,1.3-2.1,2.7-3.2,4
	c-1.5,1.7-3.1,3.2-4.5,4.9c-1,1.2-1.7,2.5-2.6,3.8c-0.3,0.4-0.8,0.9-1.2,1.3c-1,1-2.4,1.7-2.9,2.9c-0.5,1.3-2.6,2.1-1.6,3.6
	c1,1,1.6,1.7,2.3,2.5c1.5,1.7,2.9,3.3,4.3,5c1.3,1.6,2.6,3.2,3.9,4.9c0.4,0.5,0.9,1.1,1.3,1.6c1.1,1.2,2,2.5,3.2,3.5
	c1.9,1.6,3,3.9,4.6,5.6c0.9,1,1.9,1.7,2.9,2.7c0.5,0.5,0.9,1.4,1.4,2c1,1.2,2,2.4,3.1,3.5c1.3,1.6,2.6,3.2,4,4.7
	c1,1.1,1.9,2.1,2.9,3.2c0.9,1.1,1.7,2.1,2.7,3.1c1.1,1.3,2.3,2.5,3.3,3.8c1.5,1.6,3.2,3,4.3,4.9c1,1.7,2.3,3,3.6,4.3
	c0.1,0.1-0.1,0.9-0.3,1c-0.3,0.2-0.8,0.1-1.2,0.1c-8.1,0-16-0.1-24,0.1c-1.7,0-2.7-0.8-3.5-1.8c-1.3-1.6-2.5-3.3-3.8-4.9
	c-1.2-1.4-2.7-2.6-4-4c-0.6-0.8-1.1-1.7-1.6-2.5c-0.9-1.1-1.8-1.9-2.8-3c-1-1.2-1.9-2.4-2.9-3.4c-1-1.1-1.9-2.3-2.9-3.3
	c-0.9-1-1.7-1.8-2.6-2.8c-1.2-1.3-2.3-2.7-3.4-4.1c-1.4-1.6-3-3.2-4.4-4.8c-0.6-0.6-1-1.6-1.5-2.3c-0.8-1-1.5-2-2.5-2.8
	c-0.4-0.3-1.4-0.5-2,0.4c-0.8,1.2-1.9,2-2.9,3.1c-0.6,0.6-1.1,1.5-1.6,2.3c-0.5,0.6-1.3,1.3-1.8,1.9c-0.9,1-1.7,1.9-2.6,2.9
	c-1.1,1.3-2.1,2.6-3.2,3.9c-1.3,1.5-2.5,3-3.8,4.5c-1.2,1.4-2.3,3-3.5,4.4c-1.3,1.4-2.7,2.7-4,4c-0.1,0.1-0.2,0.4-0.3,0.5
	c-0.5,0.8-1,1.6-1.6,2.4c-1.3,1.5-2.8,2.9-4.2,4.5c-1.3,1.5-2.3,3.1-3.6,4.5c-0.4,0.4-1.4,0.4-2.1,0.4c-6.5,0-13.1,0-19.6,0
	c-1.8,0-3.5,0-5.4,0c-0.3,0-0.6-0.3-1-0.4c0.2-0.3,0.4-0.5,0.6-0.9c1-1.2,1.8-2.4,2.8-3.5c0.5-0.6,1-1.3,1.5-1.8
	c1.4-1.6,2.9-3.1,4.2-4.7c1.2-1.4,2.3-2.9,3.5-4.3c1.3-1.4,2.8-2.7,4.1-4.1c0.6-0.6,1-1.6,1.6-2.4c0.9-1.1,1.9-1.9,2.9-3
	c1-1.1,1.8-2.3,2.8-3.4c0.5-0.6,1-1.4,1.5-2c1.4-1.5,2.7-3,4.1-4.4c1.5-1.6,2.5-3.5,4.3-4.9c1.3-1,2.7-2.3,3.2-3.6
	c0.6-1.6,2-2.4,2.8-3.8c0.6-1.1,1.7-1.8,2.6-2.7c0.8-0.8,1.7-1.4,1.9-2.6c0.1-0.5,0.8-1,1.2-1.4c0.6-0.6,1.3-1.3,2-2.1
	c0-0.6,0.3-1.3-0.6-2.1c-1.2-1-1.8-2.7-2.8-3.9c-0.9-1-1.9-1.7-2.9-2.7c-0.5-0.5-1-1.3-1.5-1.9c-1.1-1.3-2.1-2.5-3.2-3.6
	c-1.3-1.6-2.6-3.3-3.9-4.9c-0.5-0.6-1.1-1.2-1.6-1.7c-0.9-1-1.7-1.9-2.6-2.9c-1.1-1.3-2-2.6-3.1-3.8c-0.9-1.1-1.8-2.1-2.7-3.1
	c-0.8-1-1.6-1.8-2.4-2.8c-0.8-0.9-1.4-1.8-2.1-2.7c-0.5-0.6-1.2-1.2-1.7-1.8c-0.4-0.4-1-1-1.4-1.5c-1.3-1.6-2.5-3.3-3.8-4.9
	c-1.2-1.4-2.7-2.7-4-4.1c-0.6-0.6-1.1-1.6-1.7-2.3c-1-1.2-2.3-2.1-3-3.3c-0.9-1.4-2.8-2-2.7-4.2c0.5,0,1-0.1,1.5-0.1
	c8.1,0,16.1,0,24.2-0.1c1.3,0,2,0.6,2.7,1.3c1.5,1.5,2.9,3.1,4.3,4.7c0.6,0.6,1,1.5,1.6,2.3c1,1.1,1.9,2,2.9,3.1
	c0.9,1,1.8,1.7,2.4,2.8c0.9,1.7,2.3,2.8,3.4,4.1c1.4,1.5,2.6,3.3,3.9,4.9c0.9,1,1.8,1.9,2.7,2.9c1,1.1,1.8,2,2.7,3.1
	c1.1,1.3,2.1,2.5,3.2,3.8c0.9,1.1,1.5,2.4,2.6,3.1c1.6,1.2,2.3,3.1,3.6,4.4c0.3,0.3,1.4,0.2,1.6-0.1c1-1.2,1.8-2.5,2.8-3.6
	c0.8-1,1.6-1.7,2.5-2.6c0.6-0.6,1.2-1.3,1.8-1.9c1.1-1.3,2.1-2.5,3.2-3.8c1.3-1.7,2.6-3.4,4-5c0.8-1,1.7-1.8,2.6-2.7
	c1.5-1.6,3.3-3,4.3-5c0.3-0.6,0.9-1.1,1.3-1.6c0.6-0.8,1.3-1.4,1.9-2c0.5-0.5,1-1,1.5-1.5c0.6-0.8,1.3-1.5,1.9-2.3
	c0.4-0.5,0.8-1.3,1.3-1.8c1.3-1.4,2.7-2.6,4.1-4c0.1-0.1,0.2-0.4,0.3-0.5c0.5-0.9,1.2-1.5,2.5-1.5c8.3,0,16.6,0,24.9,0
	C593.9,22.7,594.5,22.8,595.3,22.9z"/>
<path class="st2" d="M459,22.7c0,6.9,0,13.5,0,20.4c-27.8,0-55.7,0-83.6,0c-0.1,0.9-0.2,1.4-0.2,2c0,21.4,0,42.7-0.1,64.1
	c0,1.9,0.8,3.4,1.4,5c0.2,0.6,1.3,1.1,2,1.5c3.2,2.1,6.9,1.2,10.4,1.2c22.4,0.1,44.9,0,67.3,0c0.9,0,1.8,0.1,2.8,0.1
	c0,6.7,0,13.3,0,20.1c-0.6,0.1-1.3,0.2-1.9,0.2c-25.2,0-50.3,0-75.6,0c-1.2,0-2.5,0-3.6-0.2c-0.8-0.1-1.5-0.6-2.3-0.9
	c-1.7-0.5-3.5-0.8-5.3-1.4c-1.1-0.4-2-1.2-3.1-1.8c-1.1-0.8-1.9-1.7-3-2.3c-1.8-1.1-3.2-2.5-4.2-4.3c-0.3-0.6-1-1.1-1.5-1.6
	c-0.1-0.1-0.2-0.1-0.3-0.2c-0.4-1.1-1-2.3-1.4-3.4c-0.3-0.8-0.8-1.4-1.1-2c-0.3-0.8-0.5-1.5-0.8-2.3c-0.1-0.3-0.2-0.8-0.2-1.2
	c-0.1-2.6-0.2-5-0.2-7.6c0-24.3,0-48.6,0-72.9c0-1.5,0.1-3.1,0.1-4.6c0-1.6,0.8-2.7,1.8-3.6c0.2-0.2,0.4-0.5,0.4-0.9
	c0.1-0.8,0.5-1,1.2-1.2c1.1-0.4,2.1-1,3.2-1.5c0.5-0.2,1.1-0.5,1.7-0.6c0.8-0.1,1.5,0,2.1,0c30.5,0,60.9,0,91.3,0
	C457.3,22.7,458,22.7,459,22.7z"/>
<path class="st2" d="M174.1,80.1c0-18,0-36.1,0-54.1c0-0.4,0-0.9,0-1.4c0-1.8,0.1-1.8,1.8-1.8c5.3,0,10.5,0,15.8,0
	c1.6,0,2.5,0.9,2.5,2.5c0,36.8,0,73.6,0,110.3c0,1.3-0.4,1.5-1.6,1.5c-5.6,0-11.1,0-16.6,0c-1.9,0-1.9,0-1.9-1.9
	c0-12.2,0-24.5,0-36.6C174.1,92.4,174.1,86.2,174.1,80.1z"/>
<path class="st2" d="M416.5,90.7c-10.3,0-20.5,0-30.8,0c-2.5,0-2.5-0.1-2.5-2.6c0-5.5,0-10.9,0-16.5c0-1.2,0.8-1.8,1.9-1.7
	c0.5,0.1,1.1,0,1.6,0c20.1,0,40,0,60.1,0c2.3,0,2.3,0,2.3,2.3c0,5.5,0,10.9,0,16.5c0,1.9,0,1.9-1.9,1.9
	C436.9,90.7,426.7,90.7,416.5,90.7z"/>
</svg>
