<?xml version="1.0" encoding="utf-8"?>
<!-- Generator: Adobe Illustrator 19.2.0, SVG Export Plug-In . SVG Version: 6.00 Build 0)  -->
<svg version="1.1" id="_x31_" xmlns="http://www.w3.org/2000/svg" xmlns:xlink="http://www.w3.org/1999/xlink" x="0px" y="0px"
	 viewBox="0 0 595.3 112" style="enable-background:new 0 0 595.3 112;" xml:space="preserve">
<style type="text/css">
	.st0{fill:#FFFFFF;}
</style>
<g>
	<path class="st0" d="M134.5,27.7L134.5,27.7c5.6,0,10.6,0.9,15.2,2.7c4.5,1.8,8.6,4.5,12.1,8.2c3.5,3.6,6.2,8,8,13
		c1.7,5,2.6,10.6,2.6,17c0,5.1-0.4,9.6-1.1,13.6c-0.8,4-1.9,7.6-3.5,10.6s-3.5,5.7-5.8,8c-2.3,2.3-5,4.3-8,6
		c-2.9,1.6-6.1,2.8-9.3,3.7c-3.2,0.8-6.7,1.2-10.1,1.2l0,0V97.7l0,0c3,0,5.8-0.6,8.3-1.7c2.5-1.1,4.8-2.8,6.8-5.2
		c2-2.3,3.5-5.2,4.5-8.7c1-3.6,1.5-7.9,1.5-12.8c0-4.7-0.5-8.6-1.5-12.1c-1-3.4-2.5-6.3-4.5-8.5c-2-2.3-4.2-3.9-6.8-5.2
		c-2.5-1.1-5.3-1.7-8.2-1.7l0,0V27.7H134.5z M96.6,69.8c0-7.4,1-13.8,3.1-19.3s5.3-10.2,9.5-13.8c3.4-3,7.4-5.3,11.6-6.8
		c4.2-1.5,8.8-2.2,13.9-2.2V42c-3,0-5.8,0.6-8.3,1.7c-2.5,1.1-4.8,2.8-6.8,5.1c-2,2.2-3.5,5.2-4.5,8.6c-1,3.5-1.5,7.7-1.5,12.5
		c0,4.9,0.5,9,1.5,12.5c1,3.4,2.5,6.4,4.5,8.6c2,2.3,4.2,3.9,6.8,5.2c2.5,1.1,5.3,1.7,8.3,1.7V112c-5.7,0-10.7-0.9-15.3-2.7
		c-4.7-1.8-8.7-4.5-12.2-8.2c-3.5-3.6-6.2-8.1-7.9-13.3C97.4,82.4,96.6,76.5,96.6,69.8z"/>
	<path class="st0" d="M595.3,109.7c-2.3,0.5-4.7,0.9-7,1.2c-1.7,0.2-3.3,0.3-4.9,0.3c-2.4,0-4.7-0.2-6.7-0.6s-3.7-1-5.3-1.9
		c-1.4-0.8-2.7-1.8-3.7-2.9c-1-1.1-1.9-2.4-2.5-3.8l0,0c-0.6-1.4-1-3.4-1.3-6.3c-0.3-2.6-0.4-6-0.4-10v-43h-9.7V29.1h9.7V10.7
		L580,0.8v28.3h13.1c0,4.5,0,9,0,13.5H580v43.7c0,1.8,0.1,3.3,0.2,4.4c0.1,1,0.2,1.7,0.4,2.1l0,0c0.2,0.4,0.4,0.7,0.6,1
		c0.3,0.3,0.6,0.6,0.9,0.8c0.3,0.2,0.8,0.4,1.4,0.5l0,0c0.6,0.1,1.3,0.2,2.2,0.2c0.7,0,1.5,0,2.3-0.1c1.6-0.1,3.1-0.4,4.8-0.6
		L595.3,109.7z"/>
	<path class="st0" d="M548.2,83.8c-1.3,4.8-2.5,8.7-5.3,12.8c-2.1,3.2-4.7,6-7.7,8.3c-3,2.3-6.5,4-10.4,5.2
		c-3.8,1.1-8.1,1.7-12.7,1.7c-0.4,0-0.7,0-1,0V97.7c0.3,0,0.7,0,1,0c2.2,0,4.3-0.3,6.2-0.9c1.8-0.6,3.5-1.4,5.1-2.6
		c1.5-1.1,2.9-2.6,4.1-4.5c1.7-2.6,2.7-5.3,3.7-8.1L548.2,83.8L548.2,83.8z M511.1,27.7h0.3c5.4,0,10.3,0.9,14.8,2.7
		c4.4,1.8,8.4,4.7,11.8,8.3c3.4,3.7,6.1,8.2,7.8,13.3c1.7,5.2,2.5,10.9,2.5,17.5c0,1.7-0.1,3.4-0.1,5.2h-37.1V60.6h19.7
		c-0.3-2.3-0.8-4.4-1.4-6.3c-0.8-2.2-1.7-4.1-3-5.6c-1.9-2.3-4.1-4-6.6-5.3c-2.4-1.1-5.3-1.7-8.3-1.7h-0.4L511.1,27.7L511.1,27.7z
		 M511.1,111.8c-5.5-0.1-10.3-1-14.8-2.7c-4.8-1.8-8.8-4.5-12.3-8.3c-3.4-3.6-6.1-8.1-7.8-13.1s-2.5-10.8-2.5-17.3
		c0-6.7,0.9-12.6,2.6-17.8c1.7-5.3,4.3-9.8,7.9-13.5s7.6-6.6,12.1-8.5c4.4-1.8,9.4-2.8,14.9-2.8v14.2c-2.6,0-5.1,0.5-7.3,1.4
		c-2.3,0.9-4.4,2.3-6.3,4.1c-1.9,1.8-3.3,4-4.3,6.5l0,0c-0.8,2-1.4,4.3-1.7,6.8h19.5v14.2h-20.5c0.3,3.3,1,6.4,1.9,9
		c1.1,3,2.6,5.6,4.7,7.7c2,2.1,4.2,3.6,6.7,4.7c2.2,0.9,4.5,1.4,7.2,1.5v14.2H511.1z"/>
	<path class="st0" d="M394.5,29.4c5.1,0,10.1,0,15.2,0v7.8c2.3-2.5,5-4.5,8-6.1c4.3-2.2,9.3-3.3,15-3.3c2.4,0,4.8,0.2,7.1,0.7
		c2.2,0.4,4.4,1.1,6.5,2c2,0.9,3.9,1.9,5.5,3.1c1.6,1.2,2.9,2.5,4,4c1,1.4,1.9,3,2.7,4.9c0.7,1.7,1.3,3.5,1.7,5.5
		c0.3,1.3,0.4,3,0.6,5.3c0.1,2.2,0.2,4.9,0.2,7.9v49.2c-5.5,0-11,0-16.5,0V61.7c0-2.6-0.1-5-0.4-6.8c-0.2-1.8-0.6-3.4-1-4.5
		s-1-2.1-1.8-3c-0.8-0.9-1.7-1.7-2.9-2.4c-1.1-0.7-2.4-1.2-3.7-1.6c-1.4-0.4-2.8-0.5-4.4-0.5c-2.6,0-5,0.4-7.2,1.2
		c-2.2,0.8-4.2,2-6.2,3.6c-1.8,1.5-3.1,3.8-4,6.9c-1,3.2-1.4,7.2-1.4,12v44c-5.5,0-11,0-16.5,0V29.4H394.5z"/>
	<path class="st0" d="M359.7,91.9c6.1,0,12.2,0,18.3,0v18.3c-6.1,0-12.2,0-18.3,0V91.9z"/>
	<path class="st0" d="M348.1,109.7l-1.6,0.3c-1.9,0.4-3.7,0.7-5.4,0.9c-1.7,0.2-3.3,0.3-4.9,0.3c-2.4,0-4.7-0.2-6.7-0.6
		c-2-0.4-3.7-1-5.3-1.9l0,0c-1.4-0.8-2.7-1.8-3.7-2.9c-1-1.1-1.9-2.4-2.5-3.8l0,0c-0.6-1.4-1-3.4-1.3-6.3c-0.3-2.6-0.4-6-0.4-10v-43
		h-9.7V29.1h9.7V10.7l16.5-9.9v28.3H346v13.5h-13.1v43.7c0,1.8,0.1,3.3,0.2,4.4c0.1,1,0.2,1.7,0.4,2.1l0,0c0.2,0.4,0.4,0.7,0.6,1
		c0.3,0.3,0.6,0.5,0.9,0.8l0,0c0.4,0.2,0.8,0.4,1.4,0.5c0.6,0.1,1.3,0.2,2.2,0.2c0.7,0,1.5,0,2.3-0.1c0.9-0.1,1.9-0.2,3.1-0.4
		l1.6-0.2L348.1,109.7z"/>
	<path class="st0" d="M280.6,29.4c5.5,0,11,0,16.5,0v80.9c-5.5,0-11,0-16.5,0V29.4z"/>
	<path class="st0" d="M280.6,0c5.5,0,11,0,16.5,0c0,6.1,0,12.2,0,18.3c-5.5,0-11,0-16.5,0C280.6,12.1,280.6,6.1,280.6,0z"/>
	<path class="st0" d="M221.2,0h2.2c4.1,0,7.9,0.3,11.3,0.8c3.4,0.6,6.5,1.4,9,2.5c5.3,2.3,9.4,5.9,12.3,10.6l0,0
		c1.5,2.3,2.6,4.9,3.3,7.3l0,0c0.7,2.5,1.1,5.1,1.1,7.7c0,2.4-0.3,4.8-1,7.1c-0.7,2.3-1.6,4.5-2.9,6.7c-1.3,2.1-2.9,4.1-5,5.9
		c-1.1,0.9-2.3,1.8-3.5,2.6c1.9,0.8,3.7,1.7,5.5,2.8c2.6,1.7,5,3.8,6.8,6.3l0,0c1.8,2.4,3.2,5.1,4.1,8c0.9,2.8,1.4,6,1.4,9.2
		c0,2.6-0.3,5.2-0.8,7.6c-0.6,2.4-1.4,4.9-2.5,7.1c-1.1,2.2-2.3,4.2-3.7,6.1c-1.4,1.7-2.9,3.2-4.7,4.5l0,0c-1.6,1.2-3.5,2.3-5.6,3.2
		c-2,0.9-4.2,1.7-6.7,2.3l0,0c-2.4,0.6-5.2,1.1-8.1,1.4c-2.9,0.3-6.2,0.5-9.6,0.5h-2.8v-16h2.9c4.4,0,7.6-0.2,9.3-0.5l0,0
		c1.5-0.3,2.9-0.6,4.2-1.1l0,0c1.2-0.4,2.3-1,3.3-1.6c1-0.6,1.8-1.3,2.6-2.2l0,0c0.8-0.9,1.5-1.9,2.2-3.1c0.6-1.1,1.1-2.4,1.4-3.8
		c0.3-1.4,0.5-2.8,0.5-4.4c0-1.8-0.2-3.5-0.7-5.2c-0.5-1.5-1.1-3-2.1-4.3l0,0c-0.9-1.3-2-2.4-3.2-3.3l0,0c-1.3-0.9-2.7-1.6-4.3-2.2
		l0,0c-1.7-0.6-3.8-1-6.3-1.3c-2.5-0.3-5.5-0.4-8.8-0.4h-1v-16c2.8,0,5.3-0.1,7.3-0.3c2.1-0.2,3.8-0.5,5.1-0.9l0,0
		c1.6-0.5,3-1.1,4.2-1.9c1.2-0.8,2.2-1.7,2.9-2.8c0.8-1.1,1.4-2.3,1.8-3.6c0.4-1.4,0.6-2.9,0.6-4.7c0-1.6-0.2-3.1-0.6-4.5
		c-0.4-1.4-0.9-2.7-1.7-3.8l0,0c-0.7-1.2-1.6-2.2-2.7-2.9c-1-0.8-2.3-1.4-3.6-1.8c-1.5-0.5-3.5-0.8-6.1-1c-2-0.2-4.4-0.3-7.3-0.3V0
		H221.2z M181.7,0h39.6v15.9c-0.8,0-1.5,0-2.3,0h-19.7v29h21.4h0.6v16h-22v33.5h22v16h-39.6V0z"/>
	<path class="st0" d="M42.7,63.8L0,0h21.1c10.5,16.1,21.6,31.9,31.1,48.6C62.2,32,73.2,16.2,83.8,0h20.6L60.3,63.8v46.4
		c-5.9,0-11.7,0-17.6,0C42.7,110.2,42.7,63.8,42.7,63.8z"/>
</g>
</svg>
