<?xml version="1.0" encoding="utf-8"?>
<!-- Generator: Adobe Illustrator 19.2.0, SVG Export Plug-In . SVG Version: 6.00 Build 0)  -->
<svg version="1.1" id="Слой_1" xmlns="http://www.w3.org/2000/svg" xmlns:xlink="http://www.w3.org/1999/xlink" x="0px" y="0px"
	 viewBox="0 0 283.5 283.5" style="enable-background:new 0 0 283.5 283.5;" xml:space="preserve">
<style type="text/css">
	.st0{display:none;}
	.st1{fill:none;stroke:#FFFFFF;stroke-width:7;stroke-linejoin:round;stroke-miterlimit:10;}
	.st2{display:inline;fill:#FFFFFF;}
	.st3{display:inline;}
	.st4{fill:#FFFFFF;stroke:#FFFFFF;stroke-miterlimit:10;}
	.st5{fill:#FFFFFF;}
</style>
<rect x="-3.3" y="-2.9" class="st0" width="290.4" height="290.4"/>
<polygon class="st1" points="141.9,274.7 26.8,208.2 26.8,75.3 141.9,8.8 257,75.3 257,208.2 "/>
<g id="XMLID_496_" class="st0">
	<path id="XMLID_497_" class="st2" d="M41.7,143.7l42.4,15.8l16.4,52.8c1.1,3.4,5.2,4.6,7.9,2.4l23.6-19.3c2.5-2,6-2.1,8.6-0.2
		l42.6,31c2.9,2.1,7.1,0.5,7.8-3l31.2-150.3c0.8-3.9-3-7.1-6.7-5.7L41.7,134.3C37.4,136,37.4,142.1,41.7,143.7z M97.9,151.1
		l82.9-51.1c1.5-0.9,3,1.1,1.7,2.3l-68.4,63.6c-2.4,2.2-4,5.2-4.4,8.5l-2.3,17.3c-0.3,2.3-3.5,2.5-4.2,0.3l-9-31.5
		C93.2,156.9,94.7,153.1,97.9,151.1z"/>
</g>
<g class="st0">
	<g class="st3">
		<path class="st4" d="M224.9,91.9c-4.9-8.8-10.3-10.4-21.2-11c-10.9-0.7-38.3-1-62-1c-23.8,0-51.2,0.3-62,1
			c-10.9,0.6-16.2,2.2-21.2,11c-5.1,8.8-7.7,23.9-7.7,50.4l0,0l0,0l0,0c0,26.5,2.6,41.7,7.7,50.3c5,8.8,10.3,10.4,21.2,11.1
			c10.9,0.6,38.3,1,62,1s51.1-0.4,62-1c10.9-0.7,16.3-2.3,21.2-11.1c5.1-8.7,7.7-23.9,7.7-50.3c0,0,0,0,0-0.1l0,0
			C232.6,115.7,230,100.6,224.9,91.9z M119,176.4v-68.2l56.8,34.1L119,176.4z"/>
	</g>
</g>
<g>
	<path class="st5" d="M208.2,104.7c-6.9-11.7-16.1-21-27.9-27.9c-11.7-6.9-24.6-10.3-38.5-10.3c-13.9,0-26.7,3.4-38.5,10.3
		c-11.7,6.8-21,16.1-27.9,27.9c-6.8,11.7-10.3,24.6-10.3,38.5c0,16.7,4.9,31.7,14.6,45c9.7,13.3,22.3,22.6,37.8,27.7
		c1.8,0.3,3.1,0.1,4-0.7c0.9-0.8,1.3-1.8,1.3-3c0-0.2,0-2-0.1-5.4c0-3.4-0.1-6.4-0.1-8.9l-2.3,0.4c-1.5,0.3-3.3,0.4-5.5,0.3
		c-2.2,0-4.5-0.3-6.9-0.7c-2.4-0.4-4.6-1.4-6.7-3c-2.1-1.6-3.5-3.6-4.4-6.1l-1-2.3c-0.7-1.5-1.7-3.2-3.1-5.1
		c-1.4-1.9-2.9-3.1-4.3-3.8l-0.7-0.5c-0.5-0.3-0.9-0.7-1.3-1.2c-0.4-0.5-0.7-0.9-0.9-1.4c-0.2-0.5,0-0.8,0.5-1.1s1.5-0.4,2.9-0.4
		l2,0.3c1.3,0.3,3,1.1,4.9,2.4c2,1.3,3.6,3.1,4.8,5.2c1.5,2.7,3.4,4.8,5.5,6.2c2.2,1.4,4.3,2.1,6.5,2.1s4.1-0.2,5.7-0.5
		c1.6-0.3,3.1-0.8,4.5-1.5c0.6-4.5,2.2-7.9,4.9-10.3c-3.8-0.4-7.2-1-10.2-1.8c-3-0.8-6.2-2.1-9.4-3.9c-3.2-1.8-5.9-4-8-6.7
		c-2.1-2.7-3.9-6.2-5.2-10.5c-1.4-4.3-2-9.3-2-15c0-8,2.6-14.9,7.9-20.5c-2.5-6.1-2.2-12.8,0.7-20.3c1.9-0.6,4.8-0.1,8.6,1.3
		c3.8,1.5,6.6,2.8,8.3,3.8c1.8,1.1,3.2,2,4.2,2.7c6.2-1.7,12.6-2.6,19.2-2.6s13,0.9,19.2,2.6l3.8-2.4c2.6-1.6,5.7-3.1,9.2-4.4
		c3.5-1.3,6.2-1.7,8.1-1.1c3,7.5,3.3,14.3,0.8,20.3c5.3,5.7,7.9,12.5,7.9,20.5c0,5.7-0.7,10.7-2,15c-1.4,4.4-3.1,7.8-5.3,10.5
		c-2.2,2.6-4.9,4.8-8.1,6.6c-3.2,1.8-6.4,3.1-9.4,3.9c-3,0.8-6.4,1.4-10.2,1.8c3.5,3,5.2,7.7,5.2,14.2v21c0,1.2,0.4,2.2,1.2,3
		c0.8,0.8,2.1,1,3.9,0.7c15.4-5.1,28-14.3,37.8-27.7c9.7-13.3,14.6-28.3,14.6-45C218.5,129.3,215.1,116.5,208.2,104.7z"/>
</g>
</svg>
