<?xml version="1.0" encoding="utf-8"?>
<!-- Generator: Adobe Illustrator 19.2.0, SVG Export Plug-In . SVG Version: 6.00 Build 0)  -->
<svg version="1.1" id="Слой_1" xmlns="http://www.w3.org/2000/svg" xmlns:xlink="http://www.w3.org/1999/xlink" x="0px" y="0px"
	 viewBox="0 0 283.5 283.5" style="enable-background:new 0 0 283.5 283.5;" xml:space="preserve">
<style type="text/css">
	.st0{display:none;}
	.st1{fill:none;stroke:#FFFFFF;stroke-width:8;stroke-linejoin:round;stroke-miterlimit:10;}
	.st2{fill:#FFFFFF;stroke:#FFFFFF;stroke-miterlimit:10;}
</style>
<rect x="-3.3" y="-2.9" class="st0" width="290.4" height="290.4"/>
<polygon class="st1" points="141.9,277 24.8,209.4 24.8,74.1 141.9,6.5 259,74.1 259,209.4 "/>
<g id="XMLID_496_">
	<path id="XMLID_497_" class="st2" d="M48.3,143.9l39.3,14.6l15.2,48.9c1,3.1,4.8,4.3,7.3,2.2l21.9-17.9c2.3-1.9,5.6-1.9,8-0.2
		l39.4,28.7c2.7,1.9,6.6,0.5,7.2-2.8l28.9-139.2c0.7-3.6-2.8-6.6-6.2-5.3l-161,62.3C44.3,136.8,44.3,142.5,48.3,143.9z M100.3,150.8
		l76.8-47.3c1.4-0.8,2.8,1,1.6,2.1l-63.3,58.9c-2.2,2-3.7,4.8-4.1,7.9l-2.1,16c-0.3,2.1-3.2,2.3-3.9,0.3L97,159.5
		C96,156.2,97.3,152.6,100.3,150.8z"/>
</g>
</svg>
