<?xml version="1.0" encoding="utf-8"?>
<!-- Generator: Adobe Illustrator 19.2.0, SVG Export Plug-In . SVG Version: 6.00 Build 0)  -->
<svg version="1.1" id="Слой_1" xmlns="http://www.w3.org/2000/svg" xmlns:xlink="http://www.w3.org/1999/xlink" x="0px" y="0px"
	 viewBox="0 0 283.5 283.5" style="enable-background:new 0 0 283.5 283.5;" xml:space="preserve">
<style type="text/css">
	.st0{display:none;}
	.st1{fill:none;stroke:#FFFFFF;stroke-width:8;stroke-linejoin:round;stroke-miterlimit:10;}
	.st2{display:inline;fill:#FFFFFF;}
	.st3{display:inline;}
	.st4{fill:#FFFFFF;}
	.st5{fill:#FFFFFF;stroke:#FFFFFF;stroke-miterlimit:10;}
</style>
<rect x="-3.3" y="-2.9" class="st0" width="290.4" height="290.4"/>
<polygon class="st1" points="141.9,277 24.8,209.4 24.8,74.1 141.9,6.5 259,74.1 259,209.4 "/>
<g id="XMLID_496_" class="st0">
	<path id="XMLID_497_" class="st2" d="M41.7,143.7l42.4,15.8l16.4,52.8c1.1,3.4,5.2,4.6,7.9,2.4l23.6-19.3c2.5-2,6-2.1,8.6-0.2
		l42.6,31c2.9,2.1,7.1,0.5,7.8-3l31.2-150.3c0.8-3.9-3-7.1-6.7-5.7L41.7,134.3C37.4,136,37.4,142.1,41.7,143.7z M97.9,151.1
		l82.9-51.1c1.5-0.9,3,1.1,1.7,2.3l-68.4,63.6c-2.4,2.2-4,5.2-4.4,8.5l-2.3,17.3c-0.3,2.3-3.5,2.5-4.2,0.3l-9-31.5
		C93.2,156.9,94.7,153.1,97.9,151.1z"/>
</g>
<g class="st0">
	<g class="st3">
		<path class="st4" d="M224.9,91.9c-4.9-8.8-10.3-10.4-21.2-11c-10.9-0.7-38.3-1-62-1c-23.8,0-51.2,0.3-62,1
			c-10.9,0.6-16.2,2.2-21.2,11c-5.1,8.8-7.7,23.9-7.7,50.4l0,0l0,0l0,0c0,26.5,2.6,41.7,7.7,50.3c5,8.8,10.3,10.4,21.2,11.1
			c10.9,0.6,38.3,1,62,1s51.1-0.4,62-1c10.9-0.7,16.3-2.3,21.2-11.1c5.1-8.7,7.7-23.9,7.7-50.3c0,0,0,0,0-0.1l0,0
			C232.6,115.7,230,100.6,224.9,91.9z M119,176.4v-68.2l56.8,34.1L119,176.4z"/>
	</g>
</g>
<g class="st0">
	<path class="st2" d="M177.7,64.4h-69.9c-23.7,0-43,19.3-43,43v69.9c0,23.7,19.3,43,43,43h69.9c23.7,0,43.1-19.3,43.1-43v-69.9
		C220.7,83.7,201.4,64.4,177.7,64.4z M206.9,177.3c0,16.1-13.1,29.2-29.2,29.2h-69.9c-16.1,0-29.2-13.1-29.2-29.2v-69.9
		c0-16.1,13.1-29.2,29.2-29.2h69.9c16.1,0,29.2,13.1,29.2,29.2L206.9,177.3L206.9,177.3z"/>
	<path class="st2" d="M142.7,102.2c-22.2,0-40.2,18-40.2,40.2s18,40.2,40.2,40.2s40.2-18,40.2-40.2S164.9,102.2,142.7,102.2z
		 M142.7,168.7c-14.5,0-26.4-11.8-26.4-26.4c0-14.5,11.8-26.4,26.4-26.4c14.5,0,26.4,11.8,26.4,26.4
		C169.1,156.9,157.2,168.7,142.7,168.7z"/>
	<path class="st2" d="M184.6,90.4c-2.7,0-5.3,1.1-7.2,3s-3,4.5-3,7.2s1.1,5.3,3,7.2c1.9,1.9,4.5,3,7.2,3s5.3-1.1,7.2-3s3-4.5,3-7.2
		s-1.1-5.3-3-7.2C189.9,91.5,187.3,90.4,184.6,90.4z"/>
</g>
<g class="st0">
	<g class="st3">
		<path class="st4" d="M151.5,116V94.9c0-5.8,4.7-10.5,10.5-10.5h10.5V58.1h-21.1c-17.4,0-31.6,14.1-31.6,31.6V116H98.9v26.3H120
			v84.2h31.6v-84.2h21.1l10.5-26.3H151.5z"/>
	</g>
</g>
<g>
	<g>
		<path class="st5" d="M228.8,88.2c-6.5,2.9-13.4,4.8-20.7,5.7c7.4-4.5,13.1-11.5,15.8-19.9c-7,4.1-14.7,7.1-22.9,8.8
			c-6.6-7-15.9-11.4-26.3-11.4c-19.9,0-36.1,16.1-36.1,36c0,2.8,0.3,5.6,0.9,8.2c-30-1.5-56.5-15.9-74.3-37.7
			c-3.1,5.3-4.9,11.5-4.9,18.1c0,12.5,6.4,23.5,16,30c-5.9-0.2-11.5-1.8-16.3-4.5v0.5c0,17.5,12.4,32,28.9,35.4
			c-3,0.8-6.2,1.3-9.5,1.3c-2.3,0-4.6-0.2-6.8-0.7c4.6,14.3,17.9,24.8,33.7,25c-12.3,9.7-27.9,15.4-44.8,15.4
			c-2.9,0-5.8-0.2-8.6-0.5c16,10.2,34.9,16.2,55.3,16.2c66.3,0,102.6-54.9,102.6-102.6l-0.1-4.7C217.8,101.8,223.9,95.5,228.8,88.2z
			"/>
	</g>
</g>
</svg>
